<?xml version="1.0" encoding="utf-8"?>
<!-- Generator: Adobe Illustrator 26.5.0, SVG Export Plug-In . SVG Version: 6.00 Build 0)  -->
<svg version="1.1" id="Calque_1" xmlns="http://www.w3.org/2000/svg" xmlns:xlink="http://www.w3.org/1999/xlink" x="0px" y="0px"
	 viewBox="0 0 768 768" style="enable-background:new 0 0 768 768;" xml:space="preserve">
<style type="text/css">
	.st0{fill:#FFFFFF;stroke:#9E5C39;stroke-width:5;stroke-miterlimit:10;}
	.st1{fill:none;stroke:#66B22E;stroke-miterlimit:10;}
	.st2{fill:#9E5C39;stroke:url(#SVGID_1_);stroke-miterlimit:10;}
	.st3{fill:#FFFFFF;}
	.st4{fill:#9E5C39;}
	.st5{font-family:'TwCenMT-Condensed';}
	.st6{font-size:63.1787px;}
</style>
<g>
	<ellipse class="st0" cx="384.3" cy="384" rx="378.6" ry="359.8"/>
	<path class="st1" d="M455.6,244.5"/>
	<g>
		
			<linearGradient id="SVGID_1_" gradientUnits="userSpaceOnUse" x1="238.7501" y1="614.4385" x2="580.3409" y2="251.1593" gradientTransform="matrix(1 0 0 -1 0 768)">
			<stop  offset="0" style="stop-color:#FFFFFF"/>
			<stop  offset="0.2273" style="stop-color:#C3870E"/>
			<stop  offset="0.516" style="stop-color:#A67114"/>
			<stop  offset="0.5481" style="stop-color:#A37013"/>
			<stop  offset="0.7941" style="stop-color:#C3870E;stop-opacity:0.8"/>
			<stop  offset="1" style="stop-color:#FFFFFF"/>
		</linearGradient>
		<path class="st2" d="M613.8,426.2c-15.2,58.1-55.5,97-64.4,102.4c-6.9-6-14.9-21.6-14.9-21.6l-73.4-165.7
			c-5.3,6.6-10.6,13.2-15.9,19.8c-4.5,5.5-8.9,11-13.8,16.1c-4.3,4.5-8.7,8.8-11.5,14.3c-0.1,0.2-0.2,0.3-0.3,0.5
			c-0.1,0.9-0.4,1.8-0.9,2.6c-0.3,0.6-0.7,1.2-1.2,1.6c0,0-1.7,1.3-1.7,1.3l0,0c-1.3,0.7-2.5,1.1-4.1,1.1c-1.4,0-2.7-0.3-3.9-0.9
			c-0.5-0.4-1.1-0.8-1.7-1.2c-1.1-1-1.8-2.1-2.2-3.4c-0.1-0.6-0.2-1.3-0.3-1.9c0-1,0.1-1.9,0.6-2.8c0.2-0.6,0.5-1.2,0.9-1.7
			c0.1-0.8,0.4-1.6,0.8-2.4c3.2-6.1,7.9-11.1,12.6-16.1c4.8-5,9.2-10.4,13.6-15.7c7.3-9,14.5-18.1,21.8-27l-0.2-0.5
			c0,0,66.8-77.9,92.6-103.6c59.9,86.2,61.9,128.1,61.9,128.1h11.2L609.7,132c0,0-4,0.2-11.9,0c-13.6,16.6-31.8,34.3-31.8,34.3
			c-18.3,18.6-38.4,17.4-54.8,4.2c-6.3-8.4-93.2-76.7-212.9-37.1C79,212.4,68.1,462.8,242.4,554.6s293.2,0.4,293.2,0.4
			s27.9-21.6,37.4-32.3c42.2-41.9,52.8-96.4,52.8-96.4S620.8,426.2,613.8,426.2z"/>
		<path class="st3" d="M517.5,193.8c0,0-86.3-91.6-194.7-46.7c0,0-31.5,13.8-47.9,46.1c37.2,2.4,135.9,1.1,135.9,1.1v9
			c0,0-45.8-9-48.9,49.1s-2.3,173.9-2.3,173.9l122.6-148.2c0,0,35.9-52.1-19.5-74.9c-10.2,0-15.9,0-15.9,0v-9L517.5,193.8z"/>
		<path d="M404,393.1c-0.1-0.6-0.2-1.3-0.3-1.9"/>
		<path d="M415.8,397.5"/>
		<path class="st3" d="M409.8,378.3L359.6,438c0,0,1.7,22.9,0.4,49.2c1.9,67.7,50.8,57.6,50.8,57.6V555c0,0-45.2-0.6-104.4-0.6
			c96.4,65.9,204.8,0.6,204.8,0.6l-72.2,0v-10.1c0,0,11.8-0.7,21.2-1.3c25.8-5.4,18.3-30.8,18.3-30.8l-54.8-127"/>
		<path class="st3" d="M269.9,202.8c0,0,41,1.8,38.4,64.1c0.6,64.7,0.5,212.4,0.5,212.4s-0.5,49.9-20,57.6
			c-15.8-13.8-42.8-50.9-44.7-148.5C242.2,290.9,258.6,219,269.9,202.8z"/>
	</g>
	<g>
		<g>
			
				<image style="overflow:visible;enable-background:new    ;" width="595" height="213" xlink:href="4489FEC0.png"  transform="matrix(1.1363 0 0 1.0801 51.9717 488.6418)">
			</image>
			<g>
				<g>
					<path class="st4" d="M133.4,547.4c-0.3,0.1-0.6,0.3-0.9,0.4c-0.4,0.1-0.8,0.2-1.1,0.3c-0.4,0.1-0.7,0.1-1,0.2
						c-0.3,0-0.4,0-0.5,0c-0.1-0.1-0.3-0.3-0.4-0.6c-0.1-0.3-0.3-0.6-0.4-0.9c-0.1-0.3-0.3-0.7-0.4-1c-0.1-0.4-0.2-0.7-0.3-1
						s-0.1-0.6-0.1-0.9c0-0.3,0-0.4,0-0.6c0,0,0.2-0.1,0.6-0.2c0.3-0.1,0.7-0.2,1.1-0.2s0.8-0.1,1.2-0.2c0.4,0,0.6,0,0.8,0
						c0,0.3,0.1,0.6,0.2,1c0.1,0.4,0.2,0.8,0.3,1.3c0.1,0.4,0.3,0.9,0.5,1.3C133,546.7,133.2,547,133.4,547.4z M137.3,546.7
						c0,0.7,0.2,1.5,0.5,2.4c0.3,0.8,0.7,1.6,1.1,2.4c-0.6,0.2-1.1,0.3-1.6,0.4c-0.4,0.1-0.8,0.2-1.1,0.2c-0.3,0-0.5,0.1-0.7,0.1
						s-0.2,0-0.3,0c-0.1-0.1-0.2-0.2-0.3-0.4c-0.1-0.2-0.3-0.5-0.4-0.7c-0.1-0.3-0.3-0.6-0.4-1c-0.1-0.3-0.2-0.7-0.3-1
						c-0.1-0.3-0.1-0.7-0.2-0.9s0-0.5,0.1-0.7c0,0,0.2-0.1,0.5-0.2c0.3-0.1,0.6-0.2,0.9-0.2c0.4-0.1,0.7-0.1,1.1-0.2
						C136.8,546.6,137.1,546.6,137.3,546.7z"/>
					<path class="st4" d="M129.4,571.2c-0.4-0.1-0.7-0.3-1.1-0.5c-0.3-0.2-0.6-0.5-0.9-0.7c-0.2-0.2-0.4-0.5-0.7-0.8
						c-0.2-0.3-0.4-0.7-0.6-1.1c-0.2-0.4-0.4-0.9-0.5-1.4c-0.2-0.5-0.3-1.1-0.3-1.7c-0.1-0.6-0.1-1.2-0.1-1.8c0-0.6,0-1.3,0.1-2
						c0.1-0.7,0.2-1.4,0.5-2.2c0.2-0.8,0.5-1.6,0.9-2.4c0,0-0.1-0.1-0.1-0.1c-0.6-0.2-1.2-0.3-2-0.6c-0.7-0.2-1.5-0.5-2.2-0.8
						c-0.8-0.3-1.5-0.5-2.2-0.8c-0.7-0.3-1.4-0.5-2-0.7c-0.6-0.2-1.2-0.3-1.6-0.3c-0.4,0-0.8,0-0.9,0.2c-0.1,0.1-0.2,0.3-0.2,0.5
						s0.1,0.4,0.2,0.7c0.1,0.2,0.3,0.5,0.5,0.8c0.2,0.3,0.4,0.5,0.6,0.7c0.3,0.3,0.7,0.6,1.1,1c0.5,0.3,1,0.7,1.6,1.1
						c0.6,0.4,1.4,0.8,2.2,1.3c0.8,0.4,1.8,0.9,2.9,1.4c0,0.1,0,0.1,0,0.2c-0.5,0-1,0-1.5,0.1c-0.5,0.1-1.1,0.2-1.6,0.2
						c-0.5,0.1-1,0.1-1.5,0.2c-0.5,0-0.9,0-1.2-0.1c-1.2-0.4-2.3-1-3.2-1.5c-0.9-0.6-1.7-1.2-2.4-1.9c-0.4-0.4-0.7-0.8-1-1.2
						c-0.3-0.4-0.4-0.8-0.5-1.2c-0.1-0.4-0.1-0.7,0-1c0.1-0.3,0.2-0.5,0.4-0.7c0.2-0.2,0.4-0.3,0.7-0.5c0.3-0.2,0.5-0.3,0.8-0.5
						c0.3-0.2,0.6-0.3,0.9-0.4c0.3-0.1,0.5-0.3,0.7-0.4c1.1-0.6,2.1-0.9,3.2-1c1-0.1,2.1,0,3.3,0.4c0.5,0.1,1,0.3,1.6,0.5
						c0.6,0.2,1.2,0.4,1.9,0.6c0.6,0.2,1.2,0.4,1.8,0.6c0.6,0.2,1.1,0.3,1.6,0.5c0.3-0.2,0.6-0.4,1.1-0.6c0.4-0.2,0.8-0.4,1.2-0.5
						c0.4-0.2,0.8-0.3,1.1-0.3c0.3-0.1,0.5-0.1,0.6,0c0.1,0.1,0.1,0.2,0.1,0.2c0,0.1-0.1,0.1-0.1,0.2c-0.3,0.3-0.6,0.7-0.8,1
						c-0.3,0.3-0.5,0.7-0.7,1c-0.5,0.9-1,1.7-1.4,2.6c-0.4,0.9-0.6,1.8-0.7,2.8s-0.1,2,0,3.2c0.2,1.1,0.5,2.3,1,3.6
						c0.4,1,0.6,1.8,0.6,2.4s-0.2,1.1-0.5,1.4C129.6,571.1,129.5,571.1,129.4,571.2z"/>
					<path class="st4" d="M132.1,583.9c-0.2,0.2-0.5,0.3-0.9,0.4c-0.4,0.1-0.8,0.2-1.1,0.3c-0.4,0.1-0.7,0.2-1,0.2
						c-0.3,0-0.4,0-0.5,0c-0.1-0.1-0.3-0.3-0.5-0.6c-0.2-0.3-0.3-0.6-0.5-0.9s-0.4-0.7-0.5-1.1c-0.2-0.4-0.3-0.7-0.4-1.1
						s-0.2-0.6-0.3-0.9c0-0.3-0.1-0.5,0-0.6c0,0,0.2-0.1,0.6-0.2c0.3-0.1,0.7-0.2,1.1-0.3c0.4-0.1,0.8-0.2,1.2-0.2
						c0.4-0.1,0.6-0.1,0.8,0c0,0.3,0.1,0.6,0.3,1c0.1,0.4,0.3,0.8,0.5,1.3c0.2,0.5,0.4,0.9,0.6,1.3
						C131.7,583.1,131.9,583.5,132.1,583.9z M136.1,583c0.1,0.8,0.4,1.6,0.8,2.4c0.4,0.9,0.9,1.7,1.4,2.4c-0.6,0.2-1.1,0.4-1.6,0.5
						c-0.4,0.1-0.8,0.2-1.1,0.3s-0.5,0.1-0.7,0.1c-0.1,0-0.3,0-0.3,0c-0.1-0.1-0.2-0.2-0.4-0.4c-0.1-0.2-0.3-0.5-0.5-0.8
						c-0.2-0.3-0.3-0.6-0.5-1s-0.3-0.7-0.4-1s-0.2-0.7-0.3-1c-0.1-0.3-0.1-0.6,0-0.8c0-0.1,0.2-0.1,0.5-0.2c0.3-0.1,0.6-0.2,0.9-0.3
						c0.4-0.1,0.7-0.2,1.1-0.2C135.5,583,135.8,582.9,136.1,583z"/>
					<path class="st4" d="M128.7,563.8c0.1,0.9,0.4,1.7,0.8,2.4c0.4,0.7,0.9,1.4,1.6,2c0.7,0.6,1.5,1.2,2.5,1.6
						c1,0.4,2.2,0.7,3.6,0.9c0.7,0.1,1.3,0.1,1.9,0.1c0.6,0,1.1-0.1,1.6-0.2c0.5-0.1,1-0.2,1.4-0.3c0.4-0.1,0.8-0.2,1.2-0.2
						c0.4-0.1,0.7-0.1,0.9,0s0.5,0.1,0.7,0.3c0.2,0.1,0.3,0.3,0.4,0.6c0.1,0.2,0.2,0.5,0.3,0.9c0.1,0.4,0.2,0.8,0.4,1.3
						c0.1,0.5,0.4,1.1,0.6,1.8c0.4,1,0.6,1.8,0.6,2.4c0,0.6-0.1,1.1-0.4,1.4c-0.1,0.1-0.2,0.2-0.3,0.3c-0.4-0.1-0.7-0.2-1.1-0.4
						c-0.3-0.2-0.7-0.4-0.9-0.7c-0.4-0.3-0.7-0.7-1-1.1c-0.3-0.4-0.5-0.8-0.7-1.2c-0.2-0.4-0.4-0.8-0.6-1.1
						c-0.2-0.3-0.4-0.6-0.6-0.8c-0.2-0.2-0.5-0.3-0.7-0.3c-0.3,0-0.6,0-0.9,0.1s-0.7,0.2-1.1,0.3c-0.4,0.1-0.8,0.2-1.3,0.3
						c-0.5,0.1-1,0.2-1.5,0.2c-0.5,0-1.1,0-1.7-0.1c-1.2-0.2-2.3-0.5-3.4-1.1c-1.1-0.5-2-1.2-2.9-2c-0.6-0.6-1.1-1.2-1.5-1.8
						c-0.4-0.7-0.7-1.3-0.8-1.9c-0.2-0.6-0.2-1.1-0.1-1.6c0.1-0.5,0.2-0.8,0.5-1.1c0.2-0.2,0.5-0.3,0.8-0.5c0.4-0.1,0.9-0.3,1.5-0.4
						C128.6,563.7,128.6,563.7,128.7,563.8z"/>
					<path class="st4" d="M149.3,589.3c-0.3,0.1-0.6,0.2-1,0.4c-0.4,0.1-0.8,0.2-1.2,0.3c-0.4,0.1-0.8,0.2-1.1,0.2
						c-0.3,0-0.5,0-0.6,0c-0.1-0.1-0.3-0.3-0.6-0.7s-0.5-0.8-0.7-1.3c-0.3-0.5-0.5-1-0.6-1.5c-0.2-0.5-0.2-1-0.2-1.4
						c0,0,0.1-0.1,0.3-0.1c0.2-0.1,0.4-0.1,0.6-0.2c0.2-0.1,0.5-0.1,0.8-0.2c0.3-0.1,0.5-0.2,0.8-0.2c0.3-0.1,0.5-0.1,0.8-0.2
						c0.2,0,0.4-0.1,0.6,0c0.1,0.5,0.3,1,0.5,1.5c0.2,0.5,0.4,0.9,0.6,1.4c0.2,0.4,0.4,0.8,0.7,1.2
						C148.9,588.7,149.1,589,149.3,589.3C149.3,589.2,149.3,589.2,149.3,589.3z"/>
					<path class="st4" d="M144.9,578.2c-0.5-0.4-0.9-0.8-1.2-1.4c-0.4-0.5-0.6-1.1-0.8-1.6c-0.2-0.6-0.3-1.1-0.2-1.6
						c0-0.5,0.2-0.9,0.5-1.2c0.2-0.2,0.4-0.4,0.8-0.5s0.8-0.3,1.4-0.5c0.1,0.1,0.1,0.1,0.2,0.1c0.2,1,0.5,1.8,0.9,2.4
						c0.4,0.6,0.8,1.1,1.2,1.5c0.3,0.3,0.8,0.6,1.4,0.8s1.3,0.4,2,0.5c0.7,0.1,1.4,0.1,2.1,0s1.4-0.3,1.9-0.8c0.6-0.5,1.1-0.9,1.4-1
						c0.4-0.1,0.6-0.1,0.8,0c0,0,0.1,0.1,0.1,0.2c0,0.1,0,0.2-0.1,0.3c0,0.1-0.1,0.2-0.1,0.3c-0.1,0.1-0.1,0.2-0.2,0.2
						c-0.2,0.2-0.4,0.4-0.6,0.6c-0.2,0.2-0.5,0.5-0.7,0.7c-0.4,0.4-0.7,0.8-1,1.1c-0.3,0.3-0.6,0.5-0.9,0.7
						c-0.3,0.2-0.5,0.3-0.8,0.5c-0.3,0.1-0.5,0.2-0.8,0.3c-0.7,0.2-1.4,0.3-2,0.3s-1.3-0.1-1.9-0.2c-0.6-0.2-1.2-0.4-1.7-0.7
						C145.8,578.9,145.3,578.6,144.9,578.2z"/>
					<path class="st4" d="M168.5,589.6c-0.3,0.4-0.6,0.6-0.9,0.8c-0.3,0.2-0.7,0.3-1.1,0.4c-0.4,0.1-0.8,0.1-1.2,0.2
						c-0.4,0-0.9,0-1.4,0c-0.5,0-1.1,0-1.6,0c-0.6,0-1.2,0-1.8,0.1c-1.2,0.1-2.4,0.3-3.4,0.5s-2,0.5-3,0.8c-0.9,0.3-1.8,0.6-2.7,1
						c-0.9,0.3-1.8,0.6-2.7,0.9c-0.9,0.3-1.8,0.5-2.8,0.7c-1,0.2-2.1,0.3-3.2,0.3c-1,0-2.1-0.1-3.2-0.3c-1.1-0.2-2.2-0.5-3.2-0.9
						c-1.1-0.4-2.2-0.8-3.3-1.4c-1.1-0.5-2.2-1.2-3.3-1.8c-0.8-0.5-1.6-1-2.4-1.4c-0.7-0.4-1.4-0.8-1.9-1.1c-0.5-0.3-1-0.6-1.4-0.8
						s-0.6-0.3-0.7-0.4c-0.1,0-0.1-0.1-0.1-0.1c0,0,0-0.1,0-0.1c0,0,0.1,0,0.1,0c0.1,0,0.2,0.1,0.3,0.1c0.6,0.2,1.4,0.5,2.2,0.8
						c0.8,0.3,1.7,0.6,2.6,0.9c0.9,0.3,1.9,0.6,2.9,0.9c1,0.3,2,0.5,2.9,0.7c1,0.2,1.9,0.4,2.8,0.6c0.9,0.2,1.7,0.3,2.4,0.3
						c2.1,0.2,4,0.2,5.8,0.1c1.7-0.1,3.3-0.4,4.7-0.7c1.4-0.3,2.7-0.6,3.9-1c1.2-0.4,2.3-0.7,3.3-1.1c1.1-0.3,2.1-0.6,3-0.8
						c1-0.2,2-0.3,3-0.2c1.1,0.1,2.1,0.2,3,0.5s1.8,0.7,2.5,1.2C168.7,589.4,168.6,589.5,168.5,589.6z"/>
					<path class="st4" d="M182,578c-0.2,0.1-0.5,0.3-0.9,0.4s-0.8,0.3-1.2,0.4c-0.4,0.1-0.7,0.2-1,0.3c-0.3,0.1-0.5,0.1-0.6,0
						c-0.1-0.1-0.3-0.3-0.5-0.6c-0.2-0.3-0.5-0.7-0.7-1.2c-0.2-0.5-0.4-0.9-0.6-1.4c-0.2-0.5-0.2-0.9-0.2-1.3c0,0,0.1-0.1,0.3-0.2
						s0.3-0.2,0.5-0.3c0.2-0.1,0.5-0.2,0.7-0.3c0.3-0.1,0.5-0.2,0.8-0.3c0.3-0.1,0.5-0.2,0.7-0.2c0.2-0.1,0.4-0.1,0.5-0.1
						c0.1,0.5,0.3,1,0.5,1.4c0.2,0.4,0.4,0.9,0.6,1.3c0.2,0.4,0.4,0.8,0.6,1.1S181.8,577.7,182,578C182,578,182,578,182,578z"/>
					<path class="st4" d="M182.9,594.3c-0.6,0.2-1.2,0.3-1.8,0.3c-0.6,0-1.3-0.1-1.9-0.2c-0.6-0.1-1.3-0.3-1.9-0.6
						c-0.6-0.3-1.2-0.6-1.8-1c-0.2-0.2-0.4-0.3-0.7-0.5c-0.2-0.2-0.4-0.3-0.6-0.6c-1,0-2.1,0-3.2-0.1c-1.2-0.1-2.4-0.2-3.6-0.3
						c-1.2-0.1-2.4-0.2-3.6-0.3c-1.2-0.1-2.3-0.1-3.3-0.1c-0.5,0-1.1,0-1.5,0c-0.5,0-0.9-0.1-1.3-0.1c-0.4-0.1-0.8-0.1-1.1-0.2
						c-0.3-0.1-0.7-0.2-1-0.3c0-0.1,0-0.2,0-0.3c0.3-0.2,0.6-0.5,0.9-0.7c0.3-0.2,0.7-0.4,1.1-0.6c0.4-0.2,0.8-0.4,1.3-0.6
						c0.5-0.2,1-0.3,1.6-0.4c0.6-0.1,1.4-0.2,2.1-0.2c0.8,0,1.6,0,2.5,0c0.9,0,1.9,0.1,3,0.2s2.2,0.2,3.5,0.3c0,0,0-0.1,0.1-0.1
						c-0.2-0.4-0.4-0.7-0.6-1.2c-0.2-0.4-0.4-0.8-0.6-1.2s-0.4-0.8-0.7-1.1c-0.3-0.4-0.6-0.7-0.9-0.9c-0.4-0.3-0.8-0.5-1.3-0.7
						c-0.5-0.2-1-0.3-1.6-0.5c0-0.1,0-0.2,0-0.3c0.4-0.2,0.8-0.3,1.2-0.4s0.7-0.3,1-0.5c0.3-0.2,0.6-0.4,0.8-0.6
						c0.3-0.2,0.5-0.4,0.7-0.7c2.1,0.5,4,1,5.6,1.7c1.7,0.6,3.1,1.3,4.3,2.2c0.4,0.2,0.7,0.5,1,0.8c0.3,0.3,0.5,0.6,0.7,0.9
						c0.1,0.3,0.2,0.6,0.2,0.9c0,0.3-0.1,0.6-0.3,0.9c-0.3,0.4-0.7,0.7-1.1,1.1c-0.5,0.4-1,0.8-1.6,1.3c0,0.1,0,0.1,0,0.2
						c0.1,0.2,0.4,0.3,0.6,0.6c0.3,0.2,0.6,0.5,0.9,0.7c0.3,0.3,0.7,0.6,1,0.9c0.3,0.3,0.7,0.6,1,0.9s0.5,0.5,0.8,0.8
						C182.7,594,182.8,594.1,182.9,594.3z"/>
					<path class="st4" d="M171.8,588c0.3-0.1,0.7-0.2,1.1-0.3c0.4-0.1,0.8-0.1,1.2,0c0.4,0,0.8,0.1,1.2,0.2c0.4,0.1,0.7,0.3,1,0.5
						c0.3,0.2,0.7,0.5,1.1,0.8c0.4,0.3,0.8,0.6,1.2,0.9c1.3,0.9,2.9,1.6,4.6,2c1.8,0.4,3.8,0.5,6,0.2c0.7-0.1,1.3-0.2,1.9-0.3
						c0.6-0.1,1.2-0.2,1.7-0.3c0.5-0.1,1.1-0.1,1.5-0.1c0.5,0,0.9,0,1.3,0.2c0,0,0.1,0,0.1-0.1c0-0.3,0-0.5,0.1-0.8s0.2-0.5,0.3-0.7
						c0.3-0.4,0.7-0.8,1.3-1.1s1.4-0.7,2.4-1c0.1,0.1,0.1,0.1,0.1,0.2s0,0.1,0,0.3c-0.1,0.5-0.1,1.1,0.1,1.6c0.2,0.5,0.5,1,0.9,1.5
						c0.4,0.5,0.8,0.9,1.2,1.4c0.4,0.4,0.8,0.9,1.2,1.3c0.3,0.4,0.6,0.8,0.7,1.2s0.1,0.8-0.1,1.1c-0.2,0.3-0.5,0.6-0.8,0.8
						c-0.4,0.3-0.8,0.5-1.2,0.7c-0.5,0.2-1,0.4-1.5,0.5c-0.5,0.1-1.1,0.2-1.7,0.1c-0.6-0.7-1.2-1.3-1.9-1.9
						c-0.7-0.6-1.3-1.1-1.9-1.5c-0.5-0.3-1-0.5-1.4-0.7c-0.5-0.1-0.9-0.2-1.4-0.2c-0.5,0-1.1,0.1-1.7,0.2c-0.6,0.1-1.3,0.3-2.1,0.5
						c-1,0.3-2,0.5-3,0.5c-1,0.1-2,0-3-0.1c-1-0.2-2.1-0.4-3.1-0.8c-1-0.4-2.1-1-3.1-1.7c-0.6-0.4-1.2-0.8-1.7-1.2
						c-0.5-0.4-0.9-0.8-1.3-1.3c-0.4-0.4-0.7-0.9-0.9-1.3C171.9,588.9,171.8,588.4,171.8,588z"/>
					<path class="st4" d="M226.6,613.5c-0.2,0.2-0.4,0.4-0.8,0.7c-0.3,0.2-0.6,0.4-0.9,0.6c-0.3,0.2-0.6,0.3-0.8,0.5
						c-0.2,0.1-0.4,0.2-0.4,0.1c-0.2-0.1-0.3-0.2-0.5-0.4c-0.2-0.2-0.4-0.4-0.7-0.7c-0.2-0.3-0.5-0.5-0.7-0.8s-0.4-0.6-0.6-0.9
						c-0.2-0.3-0.3-0.5-0.4-0.8c-0.1-0.2-0.1-0.4-0.1-0.5c0-0.1,0.2-0.2,0.5-0.3c0.3-0.2,0.6-0.4,0.9-0.6c0.3-0.2,0.7-0.4,1-0.5
						c0.3-0.2,0.6-0.2,0.7-0.2c0.1,0.2,0.3,0.6,0.5,0.9s0.4,0.7,0.7,1.1c0.3,0.4,0.5,0.7,0.8,1.1C226,613,226.3,613.3,226.6,613.5z
						 M229.9,611.6c0.3,0.7,0.6,1.4,1.2,2.1c0.5,0.7,1.1,1.3,1.8,1.9c-0.5,0.4-0.9,0.7-1.3,0.9c-0.4,0.2-0.7,0.4-0.9,0.5
						c-0.3,0.1-0.4,0.2-0.6,0.3c-0.1,0-0.2,0.1-0.3,0c-0.1,0-0.2-0.1-0.4-0.3c-0.2-0.2-0.4-0.3-0.6-0.6c-0.2-0.2-0.4-0.5-0.7-0.8
						c-0.2-0.3-0.4-0.6-0.6-0.8c-0.2-0.3-0.3-0.6-0.4-0.8s-0.2-0.5-0.2-0.7c0-0.1,0.2-0.2,0.4-0.3c0.2-0.2,0.5-0.3,0.8-0.5
						c0.3-0.2,0.6-0.4,0.9-0.5C229.4,611.7,229.7,611.6,229.9,611.6z"/>
					<path class="st4" d="M231.5,635c-0.4,0-0.8,0-1.1-0.1c-0.4-0.1-0.7-0.2-1.1-0.4c-0.3-0.1-0.6-0.3-0.9-0.6
						c-0.3-0.2-0.6-0.5-0.9-0.8c-0.3-0.3-0.6-0.7-0.8-1.1c-0.3-0.4-0.5-0.8-0.6-1.2c-0.4-0.8-0.6-1.8-0.8-2.7c-0.2-1-0.2-1.9,0-2.8
						c-0.1,0-0.1-0.1-0.1-0.1c-0.9-0.1-1.7-0.1-2.3,0c-0.7,0.2-1.3,0.4-1.8,0.8c-0.5,0.3-1,0.8-1.4,1.2c-0.4,0.5-0.8,0.9-1.2,1.4
						c-0.4,0.5-0.7,0.9-1,1.3c-0.3,0.4-0.7,0.7-1,0.9c-0.5,0.3-1.1,0.5-1.6,0.5c-0.5,0.1-1.1-0.1-1.7-0.4c-0.4-0.2-0.9-0.5-1.3-0.9
						s-0.8-0.9-1.1-1.5s-0.6-1.2-0.9-1.9c-0.2-0.7-0.4-1.4-0.4-2.2c0-0.8,0-1.5,0.2-2.3c0.2-0.8,0.5-1.6,0.9-2.4
						c0.2-0.3,0.4-0.6,0.8-1c0.3-0.4,0.8-0.7,1.3-1.1c0.2-0.1,0.3-0.2,0.5-0.2c0.1,0,0.2,0,0.3,0c0.1,0,0.1,0.1,0.1,0.2
						c0,0.1-0.1,0.2-0.1,0.3c-0.4,0.2-0.7,0.5-0.9,0.7c-0.2,0.3-0.4,0.6-0.6,0.9c-0.3,0.6-0.5,1.2-0.5,1.9c0,0.7,0.1,1.5,0.4,2.2
						c0.3,0.7,0.6,1.4,1.1,2c0.5,0.6,1,1.1,1.6,1.4c0.1,0.1,0.3,0.1,0.6,0.2c0.3,0,0.5,0,0.9-0.1c0.3-0.1,0.7-0.3,1.1-0.6
						c0.4-0.3,0.8-0.8,1.2-1.4c0.4-0.5,0.7-1,1.1-1.4c0.4-0.4,0.8-0.8,1.3-1.2c0.5-0.3,0.9-0.6,1.5-0.8c0.5-0.2,1.1-0.4,1.7-0.5
						c0.7-0.1,1.4-0.1,2.1-0.1c0.7,0.1,1.5,0.2,2.4,0.5c0.1,0.1,0.2,0.1,0.3,0.2c0.1,0.1,0.1,0.1,0.1,0.2c-0.1,0.2-0.1,0.4-0.2,0.6
						s-0.2,0.5-0.2,0.7c-0.2,0.7-0.2,1.5-0.2,2.1c0.1,0.7,0.3,1.4,0.5,2s0.6,1.2,1,1.8c0.4,0.6,0.8,1.1,1.2,1.6
						c0.7,0.8,1.1,1.5,1.2,2.1c0.2,0.6,0.2,1.1,0,1.5C231.6,634.8,231.6,634.8,231.5,635z"/>
					<path class="st4" d="M226.5,629.7c0.1-0.2,0.3-0.5,0.6-0.7c0.3-0.2,0.7-0.5,1.2-0.8c0.1,0,0.1,0.1,0.2,0.1c0.5,0.9,1,1.6,1.5,2
						c0.5,0.5,1,0.8,1.5,1.1c0.8,0.4,1.7,0.6,2.7,0.7c1,0.1,2.1,0,3.3-0.3c0.7-0.2,1.3-0.5,1.9-0.8c0.5-0.4,0.9-0.8,1.1-1.3
						c0.1-0.3,0.3-0.8,0.4-1.4c0.1-0.6,0.2-1.4,0.3-2.2c0.1-0.8,0.2-1.7,0.3-2.6c0.1-0.9,0.2-1.8,0.3-2.7c0.1-0.9,0.3-1.7,0.5-2.5
						c0.2-0.8,0.4-1.4,0.6-1.9c0.2-0.5,0.6-0.9,1.2-1.5c0.6-0.5,1.4-1.1,2.4-1.7c0.1,0.1,0.1,0.1,0.1,0.2c-0.1,0.1-0.1,0.2-0.2,0.3
						c0,0.1-0.1,0.2-0.1,0.3c-0.3,0.5-0.5,1.2-0.7,2c-0.2,0.8-0.4,1.7-0.5,2.7s-0.3,2-0.4,3.2c-0.1,1.1-0.3,2.3-0.4,3.5
						c-0.1,1.2-0.1,2.3,0,3.2c0.1,0.9,0.3,1.7,0.6,2.4c0.2,0.5,0.3,0.9,0.2,1.4c0,0.5-0.1,0.9-0.3,1.3c0,0.1-0.1,0.2-0.1,0.3
						c-0.7-0.3-1.4-0.7-1.9-1.2c-0.5-0.5-0.8-1.1-1-1.9c-0.1,0-0.1,0-0.1-0.1c-0.7,1.2-1.4,2.2-2.2,3c-0.8,0.7-1.6,1.3-2.5,1.6
						c-1.3,0.4-2.6,0.6-3.8,0.5c-1.2-0.1-2.4-0.4-3.4-0.8c-0.5-0.2-1.1-0.6-1.5-1s-0.9-0.9-1.2-1.3c-0.3-0.5-0.5-1-0.7-1.4
						C226.2,630.5,226.3,630.1,226.5,629.7z"/>
					<path class="st4" d="M255.3,646.5c-0.2,0.2-0.5,0.4-0.8,0.7c-0.3,0.2-0.7,0.5-1,0.7c-0.3,0.2-0.7,0.4-0.9,0.5
						c-0.3,0.1-0.5,0.2-0.6,0.2c-0.1-0.1-0.4-0.2-0.7-0.5c-0.3-0.3-0.7-0.6-1.1-1c-0.4-0.4-0.7-0.8-1.1-1.2
						c-0.3-0.4-0.5-0.8-0.6-1.2c0,0,0.1-0.1,0.2-0.2c0.1-0.1,0.3-0.2,0.5-0.4c0.2-0.1,0.4-0.3,0.6-0.5c0.2-0.2,0.4-0.3,0.7-0.5
						c0.2-0.1,0.4-0.3,0.6-0.4c0.2-0.1,0.4-0.2,0.5-0.2c0.3,0.4,0.6,0.9,0.9,1.2c0.3,0.4,0.6,0.8,1,1.1c0.3,0.3,0.7,0.6,1,0.9
						C254.7,646.1,255,646.3,255.3,646.5C255.3,646.5,255.3,646.5,255.3,646.5z"/>
					<path class="st4" d="M244.1,619.9c0.2,0.5,0.4,0.9,0.4,1.2c0.1,0.4,0.1,0.7,0.1,0.9c0,0.1,0,0.3-0.1,0.6c0,0.3-0.1,0.6-0.1,1
						c0,0.4-0.1,0.8-0.1,1.3c0,0.5-0.1,0.9-0.1,1.4c0,0.9,0,1.7,0.1,2.4s0.3,1.3,0.7,1.8c0.3,0.5,0.7,1,1.2,1.4
						c0.5,0.4,1.1,0.7,1.9,1c0.4,0.2,0.8,0.3,1.3,0.3c0.5,0.1,1,0.1,1.4,0.1s1,0,1.4-0.1c0.5-0.1,0.9-0.2,1.3-0.3
						c0.4-0.1,0.7-0.3,1-0.5c0.3-0.2,0.5-0.4,0.6-0.6c0.3-0.7,0.4-1.4,0.4-2.3c0-0.9-0.3-2-0.7-3.4c0.5-0.4,1.1-0.9,1.6-1.3
						c0.6-0.4,1.2-0.9,1.9-1.4c0.1,0,0.1,0,0.2,0.1c0.4,1.5,0.6,2.9,0.6,4c0,1.2-0.1,2.2-0.5,3c-0.2,0.5-0.5,1-0.9,1.5
						c-0.4,0.5-0.9,1-1.4,1.6c-0.4,0.4-0.8,0.9-1.2,1.3s-0.9,0.7-1.4,1.1c-1.2,0.8-2.4,1.2-3.7,1.3c-1.3,0.1-2.5-0.1-3.7-0.6
						c-0.8-0.3-1.5-0.7-2.1-1.2c-0.6-0.5-1.2-1.1-1.6-1.8c-0.4-0.7-0.8-1.5-1-2.3c-0.2-0.9-0.3-1.8-0.3-2.9c0-0.7,0.1-1.4,0.2-2.1
						c0.1-0.7,0.2-1.4,0.3-2c0.1-0.6,0.2-1.1,0.3-1.6c0.1-0.4,0.2-0.7,0.3-0.9c0.2-0.4,0.4-0.8,0.7-1.2c0.3-0.4,0.5-0.7,0.9-1
						C243.9,619.8,244,619.8,244.1,619.9z"/>
					<path class="st4" d="M264.4,628.6c0.5-0.5,1-0.9,1.5-1.4c0.5-0.5,1-1,1.6-1.5c0.1,0,0.1,0,0.1,0.1c0.3,1.9,0.5,3.8,0.6,5.7
						c0.1,1.9,0,3.8-0.2,5.6c-0.2,1.9-0.3,3.6-0.3,5.3c0,1.7,0.1,3.2,0.3,4.6c-0.3,0.4-0.5,0.6-0.8,1c-0.3-0.1-0.6-0.3-0.9-0.6
						c-0.3-0.3-0.6-0.7-0.8-1.3c-0.2-0.6-0.4-1.3-0.5-2.3c-0.1-0.9-0.1-2.1,0-3.5c0.1-1.6,0.1-3.4,0-5.4
						C264.9,633.1,264.7,631,264.4,628.6z"/>
					<path class="st4" d="M267,636.7c0.3,0.5,0.4,0.9,0.6,1.2c0.1,0.4,0.2,0.7,0.1,0.9c0,0.1,0,0.3,0,0.7c0,0.3,0,0.6,0,1
						c0,0.4,0,0.8,0,1.3c0,0.5,0,0.9,0,1.4c0,0.9,0.1,1.7,0.3,2.4c0.2,0.7,0.5,1.3,0.9,1.8c0.4,0.5,0.9,1,1.5,1.3
						c0.6,0.4,1.4,0.7,2.3,1c1.1,0.3,2.3,0.6,3.7,0.7c1.4,0.2,2.8,0.2,4.3,0.1c1.5-0.1,3.1-0.4,4.8-0.9c1.7-0.5,3.3-1.1,5-2
						c0.6-0.3,1-0.6,1.3-0.9s0.5-0.5,0.5-0.6c0-0.2,0-0.4,0-0.6c-0.1-0.3-0.2-0.5-0.4-0.8c-0.2-0.3-0.5-0.6-1-0.8
						c-0.4-0.3-0.9-0.5-1.6-0.7c-0.6-0.2-1.1-0.2-1.7-0.3c-0.6,0-1.1,0-1.7,0.1c-0.5,0.1-1.1,0.2-1.6,0.4c-0.5,0.2-1.1,0.4-1.6,0.6
						c-0.7,0.3-1.4,0.7-2.1,1.2c-0.7,0.4-1.3,0.9-1.8,1.4c-0.6,0.5-1.2,1-1.7,1.5c-0.5,0.5-1,1-1.5,1.5c-0.1,0-0.1,0-0.1,0
						c-0.1-0.7-0.2-1.1-0.4-1.8c0-0.1,0.2-0.3,0.4-0.6c0.2-0.3,0.5-0.6,0.8-0.9c0.3-0.4,0.6-0.7,0.8-1.1c0.3-0.4,0.5-0.8,0.6-1.2
						c0.2-0.5,0.3-1,0.4-1.7c0.1-0.7,0.2-1.4,0.3-2.2c0.1-0.8,0.1-1.5,0.1-2.3c0-0.8,0-1.5-0.1-2.1c-0.1-0.6-0.2-1.2-0.4-1.6
						c-0.2-0.4-0.4-0.7-0.8-0.8c-0.4-0.1-0.7,0-1,0.4c-0.3,0.4-0.7,0.9-1.1,1.6c-0.1,0.2-0.2,0.2-0.2,0.3c-0.1,0-0.2,0-0.2,0
						c-0.2-0.1-0.3-0.3-0.2-0.6c0.1-0.2,0.2-0.5,0.4-0.9c0.2-0.4,0.4-0.7,0.6-1.1c0.2-0.4,0.5-0.8,0.7-1.2c0.3-0.4,0.6-0.7,0.9-1
						c0.5-0.4,0.9-0.8,1.3-1s0.8-0.3,1.2-0.2c0.5,0.2,0.9,0.4,1.2,0.9c0.3,0.4,0.5,1,0.7,1.6c0.3,0.8,0.4,1.6,0.4,2.4
						c0,0.8-0.1,1.7-0.2,2.5c-0.1,0.8-0.3,1.6-0.6,2.5s-0.5,1.6-0.7,2.2c-0.1,0.3-0.2,0.7-0.4,0.9c-0.1,0.3-0.3,0.5-0.4,0.8
						c0.1,0,0.1,0.1,0.1,0.1c0.9-0.8,1.8-1.5,2.7-2c0.9-0.6,1.9-1,2.8-1.3c0.9-0.3,1.9-0.5,2.8-0.5c0.9,0,1.9,0.1,2.8,0.3
						c0.8,0.2,1.4,0.5,1.9,0.8c0.5,0.3,0.9,0.7,1.2,1.2c0.3,0.4,0.4,0.9,0.4,1.4c0,0.5,0,1-0.1,1.5c-0.1,0.4-0.3,0.7-0.5,1.1
						c-0.3,0.4-0.5,0.7-0.7,1c-0.5,0.8-1,1.4-1.4,2c-0.5,0.6-0.9,1.1-1.4,1.5c-0.5,0.4-1,0.8-1.6,1.2c-0.6,0.3-1.2,0.6-2,0.9
						c-2.9,1.1-5.6,1.7-8.2,1.9c-2.6,0.2-4.9-0.1-6.9-0.7c-1-0.3-1.9-0.7-2.7-1.2c-0.8-0.5-1.5-1.1-2.1-1.7c-0.6-0.7-1-1.4-1.3-2.3
						c-0.3-0.9-0.5-1.9-0.5-2.9c0-0.7,0-1.4,0-2.1c0-0.7,0.1-1.4,0.1-2c0.1-0.6,0.1-1.1,0.2-1.6c0.1-0.4,0.1-0.8,0.2-0.9
						c0.2-0.4,0.4-0.8,0.6-1.2c0.2-0.4,0.5-0.7,0.8-1C266.8,636.6,266.9,636.6,267,636.7z"/>
					<path class="st4" d="M317.5,682.7c-0.1,0.2-0.3,0.5-0.5,0.8c-0.2,0.3-0.5,0.6-0.8,0.8c-0.3,0.3-0.5,0.5-0.7,0.7
						c-0.2,0.2-0.4,0.2-0.4,0.2c-0.2,0-0.4-0.1-0.7-0.2c-0.3-0.1-0.6-0.3-0.9-0.5c-0.3-0.2-0.7-0.4-1-0.6c-0.3-0.2-0.6-0.5-0.9-0.7
						c-0.3-0.2-0.5-0.4-0.7-0.6c-0.2-0.2-0.3-0.4-0.3-0.5c0-0.1,0.1-0.2,0.4-0.5c0.2-0.2,0.5-0.5,0.8-0.8c0.3-0.3,0.6-0.5,0.9-0.8
						c0.3-0.2,0.5-0.4,0.6-0.4c0.2,0.2,0.5,0.5,0.8,0.7c0.3,0.3,0.7,0.6,1.1,0.9c0.4,0.3,0.8,0.6,1.2,0.8
						C316.7,682.4,317.1,682.6,317.5,682.7z M320.4,680c0.5,0.6,1.1,1.2,1.9,1.7c0.8,0.5,1.6,1,2.5,1.3c-0.4,0.5-0.7,0.9-1.1,1.2
						s-0.6,0.6-0.8,0.8c-0.2,0.2-0.4,0.3-0.5,0.4c-0.1,0.1-0.2,0.1-0.3,0.1c-0.1,0-0.3-0.1-0.5-0.2c-0.2-0.1-0.5-0.2-0.8-0.4
						c-0.3-0.2-0.6-0.4-0.9-0.6c-0.3-0.2-0.6-0.4-0.9-0.7c-0.3-0.2-0.5-0.4-0.7-0.7c-0.2-0.2-0.3-0.4-0.4-0.6c0-0.1,0.1-0.2,0.3-0.4
						c0.2-0.2,0.4-0.4,0.7-0.7c0.3-0.3,0.5-0.5,0.8-0.7C319.9,680.3,320.1,680.1,320.4,680z"/>
					<path class="st4" d="M318.6,656.3c0,0.1-0.1,0.2-0.3,0.3c-1.5,0.8-2.8,1.6-3.8,2.4c-1,0.8-1.9,1.5-2.5,2.2
						c-0.7,0.7-1.2,1.4-1.5,2.1c-0.4,0.7-0.6,1.3-0.7,1.9c-0.2,1.1-0.2,2,0,2.9c0.2,0.9,0.7,1.6,1.3,2.3c0.6,0.7,1.4,1.2,2.3,1.7
						c0.9,0.4,2,0.8,3.1,1c1.2,0.2,2.5,0.3,3.9,0.2c1.3-0.1,2.7-0.3,4-0.6c1.3-0.3,2.5-0.7,3.7-1.2c1.2-0.5,2.2-1,3.1-1.6
						c0.9-0.6,1.6-1.2,2.2-1.8c0.6-0.6,0.9-1.2,1-1.8c0.1-0.4,0-0.7-0.1-1c-0.1-0.3-0.4-0.7-0.7-1c-0.4-0.3-0.8-0.6-1.4-1
						c-0.6-0.3-1.4-0.7-2.3-1c-0.8-0.3-1.6-0.5-2.2-0.8c-0.6-0.3-1.2-0.6-1.6-1c-0.4-0.4-0.7-0.8-0.9-1.3c-0.2-0.5-0.2-1-0.1-1.7
						c0-0.3,0.1-0.6,0.3-0.9c0.1-0.3,0.3-0.6,0.5-0.9c0.2-0.3,0.4-0.6,0.6-1c0.2-0.3,0.4-0.6,0.6-0.9c0.4-0.6,0.8-1.1,1.4-1.6
						s1.2-1,1.9-1.4c0.7-0.4,1.4-0.8,2.2-1.2c0.8-0.4,1.5-0.6,2.2-0.9c0.7-0.2,1.4-0.4,2.1-0.5c0.6-0.1,1.2-0.1,1.7-0.1
						c0.3,0,0.6,0.1,0.8,0.3c0.2,0.2,0.4,0.3,0.5,0.5c0.1,0.2,0.2,0.4,0.2,0.6c0,0.2,0,0.4,0,0.6c-0.1,0.4-0.1,0.8-0.3,1.1
						c-0.1,0.3-0.3,0.7-0.4,1c-0.1,0.3-0.3,0.6-0.5,1c-0.2,0.3-0.3,0.6-0.4,1c-0.1,0.3-0.2,0.4-0.3,0.4c-0.1,0-0.1,0-0.1-0.1
						c0-0.1,0-0.1-0.1-0.2c0-0.1,0-0.2,0-0.4c0-0.2,0-0.3,0-0.5c0-0.2,0-0.4,0-0.6c0-0.2,0-0.3-0.1-0.5c-0.1-0.2-0.1-0.3-0.2-0.4
						c-0.1-0.1-0.3-0.2-0.5-0.2c-0.4-0.1-0.9,0-1.5,0.1c-0.6,0.1-1.3,0.3-1.9,0.5c-0.7,0.2-1.4,0.5-2.1,0.8s-1.4,0.6-1.9,0.9
						c-0.6,0.3-1.1,0.6-1.4,0.9c-0.4,0.3-0.6,0.6-0.6,0.8c-0.1,0.3,0,0.6,0.3,0.9c0.2,0.2,0.5,0.4,0.9,0.6c0.4,0.2,0.9,0.4,1.4,0.5
						c0.5,0.2,1.1,0.3,1.7,0.5c0.6,0.2,1.1,0.4,1.7,0.6s1.1,0.5,1.5,0.8c0.7,0.6,1.2,1.2,1.4,1.8c0.2,0.7,0.2,1.3,0.1,2.1
						c-0.1,0.6-0.2,1.2-0.5,1.9c-0.2,0.7-0.5,1.5-0.8,2.4c-0.4,1.2-1,2.3-1.8,3.3c-0.8,1-1.7,1.9-2.8,2.7c-1.1,0.8-2.2,1.5-3.4,2
						c-1.3,0.6-2.5,1-3.9,1.3c-1.3,0.3-2.6,0.5-4,0.6c-1.3,0.1-2.6,0-3.8-0.2c-1.8-0.3-3.3-0.8-4.5-1.6c-1.2-0.7-2.2-1.6-2.9-2.5
						c-0.7-1-1.2-2-1.3-3.1c-0.2-1.1-0.2-2.2,0.1-3.4c0.2-1,0.5-1.9,1-2.7c0.4-0.8,0.9-1.6,1.6-2.4c0.6-0.8,1.4-1.5,2.3-2.2
						c0.9-0.7,1.9-1.4,3-2.1c0.5-0.3,1-0.6,1.4-0.8c0.4-0.2,0.7-0.4,1-0.5c0.3-0.1,0.5-0.2,0.7-0.2c0.2,0,0.3-0.1,0.4,0
						c0.1,0,0.2,0,0.2,0.1C318.6,656.2,318.6,656.2,318.6,656.3z"/>
					<path class="st4" d="M344.1,645.3c0,0,0-0.1,0.1-0.3c0.1-0.1,0.2-0.3,0.3-0.5c0.1-0.2,0.3-0.3,0.4-0.5c0.1-0.2,0.3-0.3,0.4-0.4
						c0,0,0,0,0,0c-0.6-0.2-1.1-0.4-1.4-0.8c-0.3-0.3-0.5-0.7-0.4-1c0-0.1,0.1-0.3,0.1-0.5s0.2-0.4,0.4-0.7c0.1-0.2,0.3-0.4,0.5-0.6
						c0.2-0.2,0.4-0.3,0.7-0.5c0.3-0.1,0.5-0.2,0.9-0.2c0.3-0.1,0.7-0.1,1.2,0c0.7,0.1,1.2,0.2,1.6,0.4c0.4,0.2,0.5,0.4,0.5,0.7
						c0,0.2-0.1,0.4-0.2,0.6c-0.1,0.2-0.3,0.4-0.4,0.6c0,0.1-0.1,0.1-0.2,0.1c-0.1,0-0.2-0.1-0.2-0.2c0-0.2-0.1-0.4-0.4-0.6
						c-0.3-0.2-0.7-0.3-1.4-0.3c-0.6-0.1-1,0-1.3,0.1c-0.3,0.1-0.5,0.2-0.5,0.4c0,0.2,0,0.4,0.2,0.6c0.2,0.2,0.4,0.3,0.7,0.5
						c0.3,0.1,0.5,0.3,0.8,0.4c0.3,0.1,0.5,0.2,0.7,0.2c0.3,0,0.7,0,1.1,0s0.8-0.1,1.2-0.2c0.4-0.1,0.8-0.2,1.2-0.3
						c0.4-0.1,0.8-0.2,1.1-0.3c0.1,0,0.1,0,0.2,0c0.1,0,0.1,0,0.1,0.1c0,0,0,0.1-0.1,0.1c-0.3,0.2-0.5,0.4-0.7,0.6
						c-0.1,0.2-0.3,0.3-0.4,0.4c-0.1,0.2-0.4,0.3-0.7,0.4c-0.3,0.1-0.6,0.2-1,0.3c-0.4,0.1-0.8,0.2-1.2,0.2
						c-0.4,0.1-0.8,0.2-1.2,0.3c-0.4,0.1-0.8,0.2-1.1,0.4c-0.4,0.2-0.7,0.4-0.9,0.6c-0.1,0.1-0.1,0.1-0.2,0.1c-0.1,0-0.1,0.1-0.2,0
						C344.2,645.5,344.1,645.4,344.1,645.3z"/>
					<path class="st4" d="M343.3,670c0-0.1,0.1-0.1,0.2-0.2c0.1,0,0.2-0.1,0.3-0.1c0.7-0.3,1.4-0.7,2.2-1c0.8-0.4,1.5-0.8,2.1-1.3
						c0.6-0.5,1.2-1,1.6-1.7c0.5-0.6,0.7-1.4,0.8-2.2c0.1-0.6,0.1-1.4,0-2.2c-0.1-0.8-0.3-1.8-0.5-2.8c-0.3-1-0.6-2.2-1.1-3.5
						c-0.4-1.3-1-2.7-1.6-4.3c-0.1,0-0.1,0-0.2,0c-0.4,0.4-0.7,0.9-0.9,1.3c-0.2,0.4-0.3,0.9-0.4,1.3c0,0.3,0,0.6,0,0.9
						s0.1,0.4,0.1,0.5c0,0.1,0,0.1,0,0.2c0,0.1-0.1,0.1-0.1,0.1c-0.1,0-0.2-0.1-0.3-0.2s-0.1-0.2-0.2-0.4c-0.2-0.5-0.3-1-0.4-1.5
						c-0.1-0.5-0.1-1,0-1.6c0.1-0.5,0.2-1,0.5-1.5c0.3-0.5,0.6-0.9,1-1.4c0.4-0.5,0.8-0.9,1.3-1.4c0.5-0.5,0.9-1,1.4-1.6
						c0.1,0,0.1,0,0.2,0c0.4,1.3,0.9,2.6,1.4,4c0.5,1.4,1,2.7,1.4,4.1c0.4,1.4,0.8,2.7,1.1,4c0.3,1.3,0.3,2.6,0.2,3.7
						c0,0.4-0.1,0.9-0.2,1.2c-0.1,0.4-0.2,0.7-0.3,1.1c-0.1,0.3-0.3,0.7-0.4,1c-0.2,0.3-0.4,0.7-0.6,1c-0.6,0.9-1.4,1.8-2.5,2.5
						c-1.1,0.7-2.5,1.2-4.1,1.5c-0.5,0.1-0.9,0.1-1.2,0.2c-0.3,0.1-0.5,0.1-0.7,0.1c-0.1,0-0.1,0-0.2,0S343.3,670.1,343.3,670z"/>
					<path class="st4" d="M380.8,688.8c-0.1,0.3-0.2,0.6-0.4,0.9c-0.2,0.3-0.4,0.7-0.6,0.9c-0.2,0.3-0.4,0.6-0.6,0.7
						c-0.2,0.2-0.3,0.3-0.4,0.3c-0.2,0-0.4-0.1-0.7-0.1c-0.3-0.1-0.6-0.2-1-0.3c-0.4-0.1-0.7-0.3-1.1-0.5c-0.4-0.2-0.7-0.4-1-0.5
						c-0.3-0.2-0.6-0.4-0.8-0.5c-0.2-0.2-0.3-0.3-0.4-0.4c0-0.1,0.1-0.2,0.3-0.5c0.2-0.3,0.4-0.6,0.6-0.9c0.2-0.3,0.5-0.6,0.7-0.9
						s0.4-0.4,0.6-0.5c0.2,0.2,0.5,0.4,0.9,0.6c0.4,0.2,0.8,0.5,1.2,0.7c0.4,0.2,0.9,0.4,1.4,0.6C380,688.6,380.4,688.7,380.8,688.8
						z M383.2,685.7c0.6,0.5,1.3,1,2.2,1.4c0.9,0.4,1.8,0.7,2.7,0.9c-0.3,0.5-0.6,1-0.8,1.3c-0.2,0.4-0.5,0.7-0.6,0.9
						c-0.2,0.2-0.3,0.4-0.4,0.5c-0.1,0.1-0.2,0.1-0.2,0.1c-0.1,0-0.3,0-0.5-0.1s-0.5-0.2-0.9-0.3c-0.3-0.1-0.7-0.3-1-0.4
						c-0.4-0.2-0.7-0.3-1-0.5c-0.3-0.2-0.6-0.4-0.8-0.6c-0.2-0.2-0.4-0.4-0.5-0.6c0-0.1,0.1-0.2,0.2-0.5s0.3-0.5,0.5-0.8
						c0.2-0.3,0.4-0.6,0.7-0.8C382.7,686.1,382.9,685.8,383.2,685.7z"/>
					<path class="st4" d="M386.2,657.9c0.2,0,0.3,0,0.4,0.1c0,0.1,0.1,0.2,0.1,0.2c0,0.2,0,0.3-0.1,0.5c-0.1,0.2-0.1,0.4-0.2,0.5
						c-0.1,0.2-0.2,0.4-0.2,0.6s-0.1,0.4-0.1,0.6c0,0.4,0.1,0.7,0.4,0.9s0.6,0.4,1,0.5c0.4,0.1,0.9,0.2,1.5,0.3
						c0.5,0.1,1.1,0.2,1.7,0.3c0.6,0.1,1.2,0.2,1.8,0.3c0.6,0.1,1.1,0.3,1.6,0.6c0.8,0.5,1.4,1,1.7,1.6c0.3,0.6,0.4,1.3,0.4,2
						c0,0.6,0,1.2-0.1,2c-0.1,0.7-0.2,1.6-0.4,2.5c-0.2,1.3-0.6,2.4-1.2,3.6c-0.6,1.1-1.4,2.1-2.3,3.1c-0.9,0.9-1.9,1.8-3.1,2.5
						c-1.1,0.7-2.3,1.4-3.6,1.9c-1.2,0.5-2.5,0.9-3.8,1.1c-1.3,0.2-2.5,0.4-3.7,0.3c-1.8-0.1-3.4-0.3-4.7-0.9
						c-1.3-0.5-2.4-1.2-3.3-2.1c-0.9-0.8-1.5-1.8-1.8-2.9c-0.4-1.1-0.5-2.2-0.5-3.3c0.1-1,0.2-1.9,0.5-2.8c0.3-0.9,0.7-1.8,1.2-2.6
						c0.5-0.8,1.1-1.7,1.9-2.5c0.7-0.8,1.6-1.7,2.6-2.5c0.5-0.4,0.9-0.7,1.3-1c0.4-0.3,0.7-0.5,0.9-0.6c0.3-0.2,0.5-0.3,0.7-0.3
						s0.3-0.1,0.4-0.1c0.1,0,0.2,0,0.2,0c0.1,0,0.1,0.1,0.1,0.1c0,0.1-0.1,0.3-0.3,0.4c-1.3,1-2.4,2-3.3,2.9
						c-0.9,0.9-1.6,1.8-2.1,2.6c-0.5,0.8-0.9,1.6-1.2,2.3c-0.2,0.7-0.4,1.4-0.4,2c-0.1,1.1,0.1,2,0.5,2.8c0.4,0.8,0.9,1.5,1.6,2.1
						c0.7,0.6,1.6,1,2.6,1.3s2.1,0.5,3.2,0.5c1.3,0,2.5-0.1,3.8-0.4c1.3-0.3,2.6-0.7,3.8-1.2c1.2-0.5,2.4-1.1,3.4-1.8
						c1.1-0.7,2-1.4,2.8-2.1c0.8-0.7,1.4-1.4,1.8-2.1c0.4-0.7,0.7-1.3,0.7-1.9c0-0.4-0.1-0.7-0.3-1c-0.2-0.3-0.5-0.6-0.9-0.9
						c-0.4-0.3-0.9-0.5-1.6-0.7c-0.7-0.2-1.5-0.5-2.4-0.6c-0.8-0.1-1.6-0.3-2.3-0.5c-0.7-0.2-1.2-0.4-1.7-0.7
						c-0.5-0.3-0.8-0.7-1.1-1.1c-0.2-0.4-0.4-1-0.3-1.6c0-0.4,0.1-0.8,0.2-1.3c0.1-0.5,0.3-1,0.6-1.6c0.3-0.6,0.6-1.1,0.9-1.5
						C385.8,658.1,386,657.9,386.2,657.9z"/>
					<path class="st4" d="M384.4,638.7c-0.1,0.2-0.3,0.5-0.5,0.9c-0.2,0.3-0.4,0.7-0.6,1c-0.2,0.3-0.4,0.6-0.6,0.8
						c-0.2,0.2-0.3,0.3-0.4,0.3c-0.1,0-0.4-0.1-0.8-0.2c-0.4-0.1-0.8-0.3-1.2-0.6c-0.4-0.2-0.9-0.5-1.3-0.8
						c-0.4-0.3-0.7-0.6-0.9-0.9c0,0,0-0.1,0.1-0.3c0.1-0.1,0.2-0.3,0.3-0.5c0.1-0.2,0.3-0.4,0.4-0.6c0.1-0.2,0.3-0.5,0.4-0.7
						c0.1-0.2,0.3-0.4,0.4-0.6c0.1-0.2,0.3-0.3,0.4-0.4c0.4,0.3,0.8,0.6,1.2,0.9s0.8,0.5,1.2,0.7c0.4,0.2,0.8,0.4,1.1,0.5
						C383.8,638.5,384.1,638.6,384.4,638.7C384.4,638.7,384.4,638.7,384.4,638.7z"/>
					<path class="st4" d="M384.5,661.7c-0.1,0-0.1,0-0.2-0.1c0,0-0.1-0.1-0.1-0.1c0-0.1,0-0.1,0-0.2s0-0.1,0-0.1
						c0-0.1,0-0.3,0.1-0.5c0.1-0.2,0.2-0.5,0.3-0.8c0.1-0.3,0.3-0.6,0.4-1c0.2-0.3,0.4-0.7,0.6-1c0.2-0.3,0.4-0.6,0.7-1
						c0.3-0.4,0.5-0.8,0.8-1.2c0.3-0.4,0.5-0.8,0.7-1.2c0.2-0.4,0.3-0.7,0.3-0.9c0-0.2-0.1-0.4-0.2-0.7c-0.2-0.3-0.4-0.5-0.8-0.8
						c0,0-0.1,0-0.1,0c-0.5,0.4-1.1,0.7-1.7,0.9s-1.2,0.3-1.8,0.3c-0.5,0-1-0.1-1.4-0.2c-0.4-0.1-0.8-0.3-1.1-0.5
						c-0.3-0.2-0.5-0.5-0.7-0.8c-0.2-0.3-0.2-0.6-0.2-1c0-0.4,0.1-1,0.2-1.7c0.1-0.7,0.3-1.6,0.6-2.5c0.2-0.6,0.5-1.1,1-1.5
						c0.5-0.4,1.2-0.5,2.1-0.5c0.5,0,1,0.1,1.5,0.3c0.5,0.2,0.9,0.5,1.4,0.8c0.4,0.4,0.8,0.8,1.2,1.2c0.4,0.5,0.7,1,0.9,1.5
						c0.3,0.5,0.5,1.1,0.6,1.7c0.1,0.6,0.2,1.2,0.2,1.7c0,0.6,0,1.1,0,1.7c0,0.6-0.1,1.1-0.2,1.5c-0.1,0.6-0.4,1.2-0.7,1.7
						c-0.4,0.5-0.7,1-1.2,1.5c-0.4,0.5-0.8,0.9-1.2,1.4c-0.4,0.4-0.7,0.9-1,1.3c-0.1,0.2-0.2,0.3-0.4,0.5
						C384.9,661.6,384.7,661.7,384.5,661.7z"/>
					<path class="st4" d="M421.7,648.8c0,0.3-0.1,0.6-0.3,0.9c-0.1,0.3-0.3,0.7-0.4,1s-0.3,0.6-0.4,0.8c-0.1,0.2-0.2,0.3-0.3,0.3
						c-0.2,0-0.4,0-0.7-0.1s-0.6-0.1-0.9-0.2c-0.3-0.1-0.7-0.2-1-0.4c-0.3-0.1-0.7-0.3-1-0.4c-0.3-0.2-0.5-0.3-0.8-0.4
						c-0.2-0.1-0.3-0.3-0.4-0.4c0-0.1,0.1-0.2,0.2-0.5c0.1-0.3,0.3-0.6,0.4-1c0.2-0.3,0.3-0.7,0.5-1c0.2-0.3,0.3-0.5,0.4-0.5
						c0.2,0.2,0.5,0.3,0.9,0.5c0.4,0.2,0.7,0.4,1.2,0.6c0.4,0.2,0.9,0.3,1.3,0.5C420.9,648.6,421.3,648.7,421.7,648.8z M423.4,645.4
						c0.6,0.4,1.3,0.8,2.1,1.2c0.8,0.3,1.7,0.5,2.5,0.7c-0.2,0.6-0.4,1-0.6,1.4c-0.2,0.4-0.3,0.7-0.5,0.9c-0.1,0.2-0.2,0.4-0.3,0.5
						c-0.1,0.1-0.1,0.2-0.2,0.2c-0.1,0-0.3,0-0.5,0s-0.5-0.1-0.8-0.2c-0.3-0.1-0.6-0.2-1-0.3c-0.3-0.1-0.7-0.2-1-0.4
						c-0.3-0.1-0.6-0.3-0.8-0.5c-0.2-0.2-0.4-0.3-0.5-0.5c0-0.1,0-0.2,0.1-0.5c0.1-0.2,0.2-0.5,0.4-0.8c0.1-0.3,0.3-0.6,0.5-0.9
						C423.1,645.8,423.2,645.6,423.4,645.4z"/>
					<path class="st4" d="M437.7,666.8c-0.3,0.2-0.7,0.4-1,0.5c-0.4,0.1-0.7,0.2-1.1,0.2c-0.3,0-0.6,0-1,0c-0.4,0-0.8-0.1-1.2-0.2
						c-0.4-0.1-0.9-0.3-1.4-0.5c-0.5-0.2-1-0.5-1.5-0.8c-0.5-0.3-1-0.7-1.4-1.1c-0.5-0.4-1-0.9-1.5-1.4c-0.5-0.5-1-1.1-1.4-1.7
						c-0.5-0.6-0.9-1.4-1.3-2.1c-0.1,0-0.1,0-0.2,0c-0.5,0.3-1,0.7-1.6,1.1c-0.6,0.4-1.2,0.7-1.9,1.1c-0.7,0.4-1.3,0.8-1.9,1.1
						s-1.2,0.7-1.7,1.1s-0.9,0.7-1.2,1c-0.3,0.3-0.4,0.6-0.4,0.8c0,0.2,0.1,0.3,0.3,0.4c0.2,0.1,0.4,0.2,0.7,0.3
						c0.3,0.1,0.5,0.1,0.9,0.1c0.3,0,0.6,0,0.9,0c0.4,0,0.9-0.1,1.4-0.2s1.1-0.3,1.8-0.5c0.7-0.2,1.4-0.5,2.2-0.8
						c0.8-0.3,1.7-0.7,2.7-1.2c0.1,0,0.1,0.1,0.1,0.1c-0.3,0.3-0.5,0.7-0.8,1.2c-0.3,0.5-0.5,0.9-0.8,1.3c-0.3,0.4-0.5,0.9-0.8,1.2
						c-0.3,0.4-0.5,0.6-0.8,0.8c-1.1,0.6-2.1,1.1-3.1,1.4s-1.9,0.5-2.9,0.6c-0.5,0-1,0-1.5-0.1c-0.5-0.1-0.8-0.2-1.2-0.4
						c-0.3-0.2-0.6-0.4-0.8-0.6c-0.2-0.2-0.3-0.5-0.3-0.7c0-0.2,0-0.5,0-0.8c0-0.3,0.1-0.6,0.1-0.9c0.1-0.3,0.1-0.6,0.2-0.9
						c0.1-0.3,0.1-0.5,0.1-0.8c0.2-1.1,0.5-2.1,1.1-3c0.5-0.8,1.3-1.6,2.2-2.2c0.4-0.2,0.8-0.5,1.3-0.8c0.5-0.3,1-0.6,1.6-1
						c0.5-0.3,1.1-0.6,1.6-0.9c0.5-0.3,0.9-0.6,1.3-0.9c0-0.3,0.1-0.7,0.2-1.2c0.1-0.4,0.2-0.8,0.3-1.2c0.1-0.4,0.2-0.7,0.4-1
						c0.1-0.3,0.2-0.4,0.3-0.4c0.1,0,0.2,0,0.2,0.1c0,0.1,0,0.1,0.1,0.2c0.1,0.4,0.2,0.8,0.3,1.2c0.1,0.4,0.2,0.8,0.3,1.1
						c0.3,1,0.8,1.8,1.2,2.7c0.5,0.8,1.1,1.6,1.7,2.3c0.7,0.7,1.5,1.4,2.5,2c0.9,0.6,2.1,1.1,3.4,1.6c1,0.3,1.7,0.7,2.2,1.1
						c0.5,0.4,0.7,0.8,0.8,1.3C437.6,666.6,437.6,666.7,437.7,666.8z"/>
					<path class="st4" d="M443.7,673.3c0,0.3-0.1,0.6-0.2,0.9c-0.1,0.4-0.3,0.7-0.4,1c-0.1,0.3-0.3,0.6-0.4,0.8
						c-0.1,0.2-0.2,0.3-0.3,0.3c-0.2,0-0.4,0-0.7,0c-0.3,0-0.6-0.1-1-0.2c-0.4-0.1-0.7-0.2-1.1-0.3c-0.4-0.1-0.7-0.2-1.1-0.4
						c-0.3-0.1-0.6-0.3-0.8-0.4c-0.2-0.1-0.4-0.3-0.5-0.4c0-0.1,0.1-0.2,0.2-0.5c0.1-0.3,0.3-0.6,0.4-1c0.2-0.4,0.3-0.7,0.5-1
						c0.2-0.3,0.3-0.5,0.5-0.6c0.3,0.2,0.6,0.3,1,0.5c0.4,0.2,0.8,0.3,1.3,0.5c0.5,0.2,0.9,0.3,1.4,0.4
						C442.8,673.2,443.2,673.3,443.7,673.3z M445.4,669.9c0.7,0.4,1.4,0.8,2.3,1s1.8,0.4,2.7,0.5c-0.2,0.6-0.4,1.1-0.6,1.5
						c-0.2,0.4-0.3,0.7-0.5,1c-0.1,0.2-0.2,0.4-0.3,0.5c-0.1,0.1-0.2,0.2-0.2,0.2c-0.1,0-0.3,0-0.5,0s-0.5-0.1-0.9-0.2
						c-0.3-0.1-0.7-0.2-1-0.3c-0.4-0.1-0.7-0.2-1.1-0.3c-0.3-0.1-0.6-0.3-0.9-0.4c-0.3-0.2-0.5-0.3-0.6-0.5c0-0.1,0-0.2,0.1-0.5
						c0.1-0.2,0.2-0.5,0.4-0.9c0.1-0.3,0.3-0.6,0.5-0.9S445.2,670.1,445.4,669.9z"/>
					<path class="st4" d="M436.1,667.5c-0.6,0.1-1.2,0-1.8-0.1c-0.6-0.1-1.2-0.3-1.8-0.5c-0.5-0.2-1-0.5-1.3-0.9
						c-0.4-0.3-0.6-0.7-0.6-1.1c0-0.2,0-0.6,0.1-0.9c0.1-0.4,0.3-0.8,0.6-1.3c0.1,0,0.1,0,0.2,0c0.9,0.5,1.7,0.8,2.4,1
						c0.7,0.2,1.3,0.2,1.9,0.1c0.4-0.1,0.9-0.2,1.5-0.5s1.1-0.6,1.7-1c0.5-0.4,1-0.9,1.4-1.5c0.4-0.6,0.7-1.2,0.7-1.9
						c0-0.7,0-1.3,0.1-1.7c0.1-0.3,0.3-0.5,0.5-0.6c0.1,0,0.1,0,0.2,0.1c0.1,0.1,0.1,0.1,0.2,0.2s0.1,0.2,0.1,0.3
						c0,0.1,0,0.2,0.1,0.3c0,0.2,0.1,0.5,0.1,0.8c0,0.3,0.1,0.6,0.1,1c0.1,0.6,0.1,1,0.2,1.4c0,0.4,0,0.8,0,1.1
						c0,0.3-0.1,0.6-0.2,0.9s-0.2,0.5-0.3,0.7c-0.3,0.6-0.6,1.2-1.1,1.7c-0.4,0.5-0.9,0.9-1.4,1.2c-0.5,0.3-1.1,0.6-1.6,0.8
						C437.3,667.3,436.7,667.5,436.1,667.5z"/>
					<path class="st4" d="M454.8,658.3c0,0.1,0,0.1,0,0.2s-0.1,0.1-0.2,0.1c-0.1,0-0.2,0-0.3-0.1c-0.4-0.5-0.9-1-1.3-1.2
						c-0.4-0.3-0.8-0.4-1.1-0.3c-0.1,0-0.2,0.1-0.2,0.2c0,0.1-0.1,0.2-0.1,0.4c0,0.1,0,0.3,0,0.4c0,0.2,0,0.3,0,0.4
						c0.1,1.4,0.1,2.7,0,3.8c-0.1,1.1-0.3,2-0.6,2.9c-0.3,0.8-0.6,1.6-1,2.2c-0.4,0.6-0.9,1.2-1.4,1.7c-0.6,0.6-1.4,1.2-2.3,1.6
						c-0.9,0.5-1.8,0.9-2.8,1.3c-1,0.4-1.9,0.7-2.9,1s-1.9,0.5-2.7,0.7c-0.4,0.1-0.8,0.2-1.1,0.4s-0.5,0.2-0.6,0.2
						c-0.2,0-0.3,0-0.3-0.1c0,0,0.1-0.1,0.2-0.2c0.1-0.1,0.3-0.2,0.4-0.3c0.2-0.1,0.4-0.2,0.6-0.3c0.2-0.1,0.4-0.2,0.5-0.3
						c1-0.6,2.1-1.3,3.2-2.1c1.1-0.8,2.2-1.7,3.3-2.7s2-2.2,2.8-3.4c0.8-1.3,1.5-2.7,1.9-4.3c0.1-0.5,0.2-0.9,0.3-1.4
						c0.1-0.5,0.1-0.9,0.1-1.4c0-0.4,0-0.9,0.1-1.3c0-0.4,0-0.8,0-1.2c0-0.8,0.1-1.5,0.3-2c0.1-0.5,0.4-0.8,0.8-0.9
						c0.3-0.1,0.7,0,1.1,0.2c0.4,0.2,0.9,0.4,1.3,0.9c0.3,0.2,0.5,0.6,0.7,1.1c0.2,0.5,0.4,0.9,0.6,1.4c0.2,0.5,0.3,1,0.4,1.5
						C454.7,657.6,454.8,658,454.8,658.3z"/>
					<path class="st4" d="M471.2,655c0,0.2,0.1,0.4,0.1,0.7s0.1,0.4,0.1,0.7c0.3,1.2,0.3,2.4,0.2,3.4c-0.1,1-0.4,2-0.7,2.8
						c-0.4,0.8-0.9,1.6-1.6,2.3c-0.6,0.7-1.4,1.3-2.2,1.9c-0.9,0.6-1.8,1.1-2.8,1.6c-1,0.4-1.9,0.8-2.9,1.1
						c-0.9,0.3-1.8,0.6-2.6,0.8c-0.8,0.2-1.4,0.4-1.9,0.5c-0.2,0.1-0.5,0.2-0.7,0.2c-0.2,0.1-0.5,0.2-0.7,0.3
						c-0.2,0.1-0.4,0.2-0.5,0.2c-0.2,0.1-0.3,0.1-0.3,0.1c-0.2,0-0.3,0-0.4-0.1c0,0,0.1-0.1,0.2-0.2c0.1-0.1,0.3-0.2,0.5-0.3
						c0.2-0.1,0.4-0.2,0.6-0.4c0.2-0.1,0.4-0.2,0.5-0.3c2.5-1.4,4.6-2.8,6.4-4.2c1.8-1.4,3.2-2.7,4.3-3.9c1.1-1.2,1.9-2.3,2.4-3.3
						c0.5-1,0.6-1.7,0.5-2.3c-0.1-0.3-0.2-0.6-0.4-0.8c-0.2-0.2-0.5-0.4-0.9-0.6c-0.1,0-0.1,0-0.2,0c-0.5,0.5-0.9,0.8-1.4,1.1
						c-0.5,0.3-1,0.4-1.6,0.6c-0.5,0.1-1.1,0.1-1.5,0.1c-0.5-0.1-0.9-0.2-1.2-0.3c-0.4-0.2-0.7-0.4-0.9-0.6
						c-0.2-0.2-0.4-0.5-0.4-0.8c0-0.2-0.1-0.5-0.1-0.8c0-0.3,0-0.7,0-1.1c0-0.4,0.1-0.8,0.1-1.3c0-0.4,0.1-0.9,0.1-1.2
						c0-0.3,0.1-0.6,0.2-0.9c0.1-0.3,0.3-0.6,0.4-0.8c0.2-0.2,0.4-0.4,0.7-0.6c0.3-0.2,0.6-0.3,1-0.4c0.5-0.1,1-0.1,1.4-0.1
						c0.5,0.1,0.9,0.2,1.3,0.3c0.4,0.2,0.8,0.4,1.2,0.7c0.4,0.3,0.7,0.6,1,1c0.4,0.4,0.7,0.8,1,1.2c0.3,0.4,0.5,0.8,0.7,1.2
						c0.2,0.4,0.4,0.8,0.5,1.2C470.9,654.2,471.1,654.6,471.2,655z"/>
					<path class="st4" d="M495.4,645c0.1,0.4,0.2,0.8,0.2,1.2c0,0.4-0.1,0.7-0.3,1.1c-0.1,0.3-0.3,0.7-0.6,1
						c-0.2,0.3-0.5,0.7-0.8,1.1c-0.3,0.4-0.6,0.8-0.9,1.2c-0.3,0.4-0.6,0.9-0.9,1.4c-0.6,1-1.1,2-1.5,2.9c-0.4,0.9-0.7,1.8-1,2.7
						s-0.5,1.8-0.7,2.6c-0.2,0.9-0.5,1.7-0.7,2.6c-0.3,0.8-0.6,1.7-1,2.6c-0.4,0.9-0.9,1.7-1.6,2.6c-0.6,0.8-1.2,1.5-2,2.2
						c-0.8,0.7-1.6,1.3-2.5,2s-1.9,1.2-3,1.7c-1.1,0.5-2.2,1-3.3,1.4c-0.9,0.3-1.7,0.7-2.4,1c-0.7,0.3-1.4,0.6-1.9,0.8
						c-0.5,0.2-1,0.4-1.4,0.6s-0.6,0.2-0.7,0.3c-0.1,0-0.1,0-0.2,0c-0.1,0-0.1,0-0.1-0.1s0-0.1,0.1-0.1c0,0,0.1-0.1,0.2-0.2
						c0.5-0.3,1.2-0.7,1.9-1.2c0.7-0.5,1.4-1,2.2-1.5c0.8-0.5,1.5-1.1,2.3-1.7c0.8-0.6,1.5-1.2,2.2-1.8s1.4-1.2,2-1.8
						c0.6-0.6,1.2-1.1,1.6-1.6c1.3-1.5,2.4-2.9,3.3-4.3c0.8-1.4,1.5-2.7,2.1-4c0.5-1.3,1-2.5,1.4-3.6c0.3-1.1,0.7-2.2,1-3.2
						c0.3-1,0.7-1.9,1.1-2.8c0.4-0.9,0.9-1.7,1.5-2.4c0.7-0.8,1.3-1.5,2.1-2c0.7-0.6,1.5-0.9,2.4-1.2
						C495.3,644.7,495.3,644.8,495.4,645z"/>
					<path class="st4" d="M506.3,624.8c0,0.3-0.1,0.6-0.1,1c-0.1,0.4-0.1,0.8-0.3,1.2c-0.1,0.4-0.2,0.7-0.3,1
						c-0.1,0.3-0.2,0.4-0.3,0.5c-0.1,0-0.4,0.1-0.8,0.1s-0.9,0-1.4-0.1c-0.5-0.1-1-0.2-1.5-0.3c-0.5-0.1-0.9-0.3-1.2-0.6
						c0,0,0-0.1,0-0.3c0-0.2,0-0.4,0.1-0.6c0-0.2,0.1-0.5,0.1-0.7c0-0.3,0.1-0.5,0.2-0.8c0.1-0.2,0.1-0.5,0.2-0.7
						c0.1-0.2,0.1-0.4,0.2-0.5c0.5,0.2,1,0.3,1.4,0.4s0.9,0.2,1.4,0.3c0.4,0.1,0.9,0.1,1.3,0.1C505.6,624.8,506,624.8,506.3,624.8
						C506.3,624.8,506.3,624.8,506.3,624.8z"/>
					<path class="st4" d="M498.5,640.3c0,0.1,0,0.2,0.1,0.3c0,0.1,0.1,0.2,0.1,0.3c0.6,1.8,1.9,2.8,3.8,2.9c0,0,0.1-0.1,0.1-0.1
						c0-1.7,0.2-3.4,0.5-5c0.3-1.6,0.8-3,1.4-4.3c0.6-1.3,1.4-2.4,2.3-3.3c0.9-0.9,2-1.6,3.3-2c0.6-0.2,1.2-0.3,1.8-0.4
						c0.6,0,1.1,0,1.6,0.2c0.5,0.2,0.9,0.4,1.3,0.7c0.4,0.3,0.7,0.8,0.9,1.3c0.2,0.4,0.3,0.8,0.3,1.2c0.1,0.4,0.1,0.8,0.2,1.2
						c0.1,0.6,0.2,1.1,0.2,1.6c0,0.5,0.1,0.9,0.1,1.3c0,0.4,0,0.8-0.1,1.1c0,0.3-0.1,0.6-0.2,0.9c-0.3,0.9-0.6,1.7-1.1,2.4
						c-0.4,0.7-0.9,1.4-1.5,2.1s-1.1,1.2-1.7,1.7c-0.6,0.5-1.2,1-1.8,1.4c-0.6,0.4-1.2,0.7-1.8,1c-0.6,0.3-1.1,0.5-1.5,0.6
						c-1,0.3-1.9,0.5-2.8,0.6c-0.9,0.1-1.6,0-2.4-0.1c-0.7-0.2-1.3-0.5-1.9-0.9c-0.6-0.4-1-1-1.4-1.7c0,0-0.1,0-0.1,0
						c-0.5,0.6-1.1,1.2-1.6,1.6c-0.6,0.5-1.1,1-1.6,1.5c-0.5,0.5-1,1-1.5,1.6s-0.9,1.1-1.4,1.8c-0.3,0.4-0.6,0.8-0.9,1.2
						c-0.3,0.3-0.6,0.7-0.8,0.9c-0.3,0.3-0.5,0.5-0.8,0.7c-0.3,0.2-0.5,0.4-0.8,0.6c-0.1-0.1-0.1-0.1-0.2-0.2c0-0.4-0.1-0.7-0.1-1.1
						c0-0.4,0-0.8,0.1-1.2c0-0.4,0.1-0.9,0.3-1.3c0.1-0.5,0.3-1,0.6-1.5c0.2-0.4,0.4-0.8,0.6-1.2s0.4-0.7,0.7-1
						c0.3-0.3,0.5-0.6,0.8-0.9c0.3-0.3,0.6-0.6,1-0.9c0.7-0.6,1.3-1.1,1.9-1.6c0.6-0.5,1.1-1.1,1.6-1.5c0.5-0.5,0.9-0.9,1.3-1.3
						c0.4-0.4,0.7-0.8,0.9-1.1C498.3,640.3,498.3,640.3,498.5,640.3z M504.5,643.7c0.3,0,0.6-0.1,0.8-0.2c0.3-0.1,0.5-0.2,0.8-0.2
						c0.8-0.2,1.6-0.6,2.4-1.1c0.8-0.5,1.5-1,2.3-1.6c0.7-0.6,1.4-1.4,2-2.2c0.6-0.8,1.2-1.7,1.7-2.7c0.1-0.2,0.2-0.5,0.3-0.7
						c0.1-0.2,0.1-0.5,0.2-0.7c0-0.2,0.1-0.4,0.1-0.6c0-0.2,0-0.3-0.1-0.4c-0.1-0.2-0.2-0.4-0.5-0.6c-0.2-0.2-0.5-0.3-0.9-0.4
						c-0.3-0.1-0.8-0.1-1.2-0.1c-0.5,0-1,0.1-1.5,0.3c-1,0.3-1.9,0.8-2.6,1.5c-0.8,0.7-1.4,1.5-1.9,2.4c-0.5,0.9-0.9,2-1.3,3.2
						c-0.3,1.2-0.6,2.5-0.7,4C504.5,643.7,504.5,643.7,504.5,643.7z"/>
					<path class="st4" d="M540,618.7c0.1,0.3,0.1,0.6,0.1,1s0,0.7-0.1,1.1c0,0.3-0.1,0.7-0.1,0.9c-0.1,0.2-0.1,0.4-0.2,0.4
						c-0.2,0.1-0.4,0.1-0.7,0.2c-0.3,0-0.6,0.1-1,0.1c-0.4,0-0.7,0-1.1,0c-0.4,0-0.7-0.1-1.1-0.1c-0.3,0-0.6-0.1-0.9-0.2
						c-0.3-0.1-0.4-0.2-0.5-0.2c0-0.1,0-0.2,0-0.6c0-0.3,0-0.7,0.1-1.1c0-0.4,0.1-0.7,0.2-1.1c0.1-0.3,0.1-0.6,0.2-0.7
						c0.3,0.1,0.6,0.2,1,0.2c0.4,0.1,0.8,0.1,1.3,0.1c0.5,0,0.9,0,1.4,0C539.2,618.8,539.7,618.8,540,618.7z M540.5,615
						c0.7,0.2,1.5,0.4,2.4,0.4c0.9,0,1.8,0,2.6-0.2c0,0.6,0,1.1-0.1,1.5c0,0.4-0.1,0.8-0.1,1c0,0.3-0.1,0.5-0.1,0.6
						c0,0.1-0.1,0.2-0.1,0.2c-0.1,0-0.3,0.1-0.5,0.1c-0.2,0-0.5,0.1-0.8,0.1c-0.3,0-0.7,0-1,0c-0.4,0-0.7,0-1.1-0.1
						c-0.3,0-0.7-0.1-0.9-0.2c-0.3-0.1-0.5-0.2-0.7-0.3c0-0.1,0-0.2,0-0.5c0-0.3,0-0.6,0.1-0.9c0-0.3,0.1-0.7,0.1-1
						C540.3,615.5,540.4,615.2,540.5,615z"/>
					<path class="st4" d="M561.7,630.5c-0.2,0.3-0.5,0.6-0.8,0.8c-0.3,0.2-0.6,0.4-1,0.6c-0.3,0.1-0.6,0.2-0.9,0.3
						c-0.4,0.1-0.8,0.2-1.2,0.2c-0.4,0-0.9,0-1.5,0c-0.5,0-1.1-0.2-1.7-0.3c-0.6-0.1-1.2-0.3-1.8-0.5c-0.6-0.2-1.2-0.5-1.9-0.8
						c-0.7-0.3-1.3-0.7-2-1.2c-0.7-0.5-1.3-1-2-1.6c-0.1,0-0.1,0-0.1,0.1c-0.3,0.5-0.7,1-1.2,1.5c-0.4,0.6-0.9,1.1-1.4,1.7
						c-0.5,0.6-1,1.1-1.4,1.7c-0.5,0.6-0.9,1.1-1.2,1.6c-0.4,0.5-0.6,0.9-0.8,1.3c-0.2,0.4-0.2,0.7-0.1,0.9c0.1,0.2,0.2,0.3,0.4,0.3
						c0.2,0.1,0.5,0.1,0.7,0.1s0.6-0.1,0.9-0.2c0.3-0.1,0.6-0.2,0.9-0.3c0.4-0.2,0.8-0.4,1.3-0.7c0.5-0.3,1-0.6,1.6-1.1
						c0.6-0.4,1.2-0.9,1.8-1.5c0.7-0.6,1.4-1.3,2.2-2.1c0.1,0,0.1,0,0.2,0.1c-0.2,0.4-0.3,0.8-0.4,1.4c-0.1,0.5-0.2,1-0.3,1.5
						c-0.1,0.5-0.2,1-0.3,1.4c-0.1,0.4-0.3,0.8-0.5,1c-0.8,0.9-1.6,1.7-2.4,2.3s-1.7,1.1-2.6,1.5c-0.5,0.2-1,0.4-1.4,0.4
						c-0.5,0.1-0.9,0.1-1.2,0c-0.4,0-0.7-0.1-0.9-0.3c-0.3-0.2-0.4-0.3-0.5-0.6c-0.1-0.2-0.2-0.5-0.3-0.8s-0.1-0.6-0.2-0.9
						c-0.1-0.3-0.1-0.6-0.1-0.9s-0.1-0.5-0.1-0.8c-0.2-1.1-0.2-2.2,0-3.1c0.2-1,0.7-1.9,1.3-2.8c0.3-0.4,0.6-0.8,0.9-1.2
						c0.4-0.5,0.8-0.9,1.2-1.4c0.4-0.5,0.8-0.9,1.2-1.4c0.4-0.5,0.7-0.9,0.9-1.2c-0.1-0.3-0.2-0.7-0.3-1.1c-0.1-0.4-0.1-0.9-0.1-1.3
						c0-0.4,0-0.8,0-1.1c0-0.3,0.1-0.5,0.2-0.5c0.1-0.1,0.2-0.1,0.2,0c0,0.1,0.1,0.1,0.1,0.2c0.2,0.4,0.5,0.7,0.7,1.1
						c0.3,0.3,0.5,0.7,0.7,0.9c0.7,0.8,1.4,1.5,2.1,2.1s1.6,1.2,2.5,1.6c0.9,0.5,1.9,0.8,3,1.1c1.1,0.2,2.4,0.4,3.8,0.4
						c1.1,0,1.9,0.1,2.5,0.3c0.6,0.2,1,0.5,1.2,0.9C561.6,630.3,561.7,630.3,561.7,630.5z"/>
					<path class="st4" d="M576.3,629.9c0.1,0.3,0.1,0.6,0.1,1c0,0.4,0,0.7,0,1.1s-0.1,0.7-0.1,0.9c0,0.3-0.1,0.4-0.1,0.4
						c-0.2,0.1-0.4,0.2-0.7,0.2c-0.3,0.1-0.7,0.1-1,0.2c-0.4,0-0.8,0.1-1.2,0.1c-0.4,0-0.8,0-1.1,0s-0.7,0-0.9-0.1
						c-0.3,0-0.5-0.1-0.6-0.2c0-0.1,0-0.2,0-0.6c0-0.3,0-0.7,0-1.1c0-0.4,0.1-0.8,0.1-1.1s0.1-0.6,0.2-0.7c0.3,0.1,0.7,0.1,1.1,0.1
						c0.4,0,0.9,0,1.4,0c0.5,0,1-0.1,1.5-0.1C575.5,630.1,575.9,630,576.3,629.9z M576.6,626.1c0.8,0.2,1.6,0.2,2.6,0.1
						c1-0.1,1.9-0.2,2.8-0.5c0,0.6,0,1.1,0,1.6c0,0.4,0,0.8-0.1,1.1c0,0.3-0.1,0.5-0.1,0.6c0,0.1-0.1,0.2-0.1,0.2
						c-0.1,0.1-0.3,0.1-0.5,0.2c-0.3,0.1-0.5,0.1-0.9,0.2c-0.3,0-0.7,0.1-1.1,0.1c-0.4,0-0.8,0.1-1.1,0.1c-0.4,0-0.7,0-1-0.1
						c-0.3,0-0.6-0.1-0.7-0.2c0-0.1-0.1-0.2-0.1-0.5s0-0.6,0-0.9c0-0.3,0.1-0.7,0.1-1C576.5,626.6,576.5,626.3,576.6,626.1z"/>
					<path class="st4" d="M554.3,628.6c0.9,0.2,1.7,0.2,2.6,0.1c0.8-0.1,1.6-0.3,2.4-0.7c0.8-0.4,1.6-1,2.3-1.7
						c0.7-0.7,1.4-1.7,1.9-2.9c0.3-0.6,0.5-1.1,0.6-1.6c0.1-0.5,0.3-1,0.3-1.5c0.1-0.5,0.1-0.9,0.1-1.3c0-0.4,0.1-0.8,0.1-1.1
						c0.1-0.3,0.1-0.6,0.3-0.8c0.1-0.2,0.3-0.4,0.5-0.5c0.2-0.1,0.4-0.2,0.7-0.2c0.3,0,0.6,0,1,0c0.4,0,0.8,0.1,1.4,0.1
						c0.5,0,1.2,0.1,1.9,0c1.1,0,1.9,0,2.5,0.2c0.6,0.2,1,0.5,1.2,0.9c0.1,0.1,0.1,0.2,0.2,0.3c-0.2,0.3-0.5,0.6-0.7,0.8
						c-0.3,0.2-0.6,0.4-0.9,0.6c-0.4,0.2-0.9,0.4-1.4,0.5c-0.5,0.1-1,0.2-1.4,0.2c-0.5,0-0.9,0.1-1.3,0.1c-0.4,0-0.7,0.1-1,0.3
						c-0.3,0.1-0.4,0.3-0.5,0.5s-0.2,0.5-0.2,0.8s-0.1,0.7-0.1,1.1c0,0.4,0,0.8-0.1,1.3c-0.1,0.4-0.1,0.9-0.3,1.4
						c-0.1,0.5-0.3,1-0.6,1.5c-0.5,1-1.2,1.9-2.1,2.6c-0.8,0.8-1.8,1.4-2.8,1.9c-0.7,0.4-1.5,0.6-2.2,0.7c-0.7,0.1-1.4,0.2-2.1,0.1
						c-0.6-0.1-1.2-0.2-1.6-0.4s-0.7-0.5-0.9-0.8c-0.1-0.2-0.2-0.5-0.2-0.9c0-0.4,0-0.9,0.1-1.4
						C554.2,628.6,554.2,628.6,554.3,628.6z"/>
					<path class="st4" d="M567,616.4c1,0.1,1.9,0.1,2.6,0c0.7-0.1,1.3-0.3,1.8-0.6c0.8-0.4,1.5-1,2.1-1.6c0.6-0.7,1.2-1.5,1.6-2.5
						c0.4-1,0.7-1.9,0.8-2.6c0.1-0.7-0.1-1.4-0.4-2c-0.1-0.2-0.4-0.5-0.8-0.9c-0.4-0.3-0.8-0.7-1.3-1.1c-0.5-0.4-1-0.8-1.6-1.2
						s-1.1-0.9-1.6-1.3c-0.5-0.4-1-0.9-1.4-1.3c-0.4-0.4-0.8-0.8-1-1.2c-0.2-0.3-0.3-0.5-0.5-0.8c-0.1-0.3-0.3-0.6-0.4-0.9
						c-0.1-0.3-0.3-0.7-0.4-1.1c-0.1-0.4-0.3-0.9-0.5-1.4c-0.3-0.8-0.7-1.8-1-2.7c-0.2-0.9-0.3-1.8-0.2-2.7c0.1-0.3,0.2-0.9,0.5-1.6
						c0.3-0.7,0.6-1.5,1-2.5c0.4-1,0.8-2,1.3-3.2c0.5-1.1,0.9-2.3,1.4-3.6c0.5-1.2,0.9-2.5,1.3-3.8c0.4-1.3,0.7-2.6,1-3.8
						s0.5-2.4,0.6-3.5c0.1-1.1,0.1-2.1,0.1-3c0-0.1,0-0.2,0-0.3c0-0.1,0-0.1,0.1-0.1s0.1,0,0.1,0c0,0,0,0,0.1,0.1
						c0,0,0.1,0.1,0.1,0.3c0.1,0.1,0.1,0.3,0.2,0.5c0.1,0.2,0.2,0.4,0.3,0.6c0.1,0.2,0.2,0.4,0.2,0.6c0.2,0.5,0.4,1,0.5,1.6
						c0.1,0.5,0.2,1,0.2,1.6c0,0.5,0,1.1,0,1.6c0,0.5-0.1,1.1-0.2,1.7c-0.3,2-0.7,3.8-1.2,5.5c-0.5,1.7-1,3.4-1.6,4.9
						c-0.5,1.5-1.1,2.9-1.6,4.2c-0.5,1.3-1,2.4-1.3,3.5c-0.4,1-0.6,1.9-0.7,2.7c-0.1,0.7,0,1.4,0.3,1.8c0.1,0.2,0.4,0.5,0.6,0.8
						c0.3,0.3,0.7,0.7,1.1,1.1c0.5,0.4,1.1,0.9,1.7,1.5c0.7,0.6,1.5,1.2,2.5,2c0.7,0.5,1.2,1,1.6,1.4c0.4,0.4,0.8,0.8,1,1.2
						c0.2,0.2,0.3,0.5,0.4,0.7c0.1,0.2,0.2,0.5,0.3,0.7c0.1,0.2,0.2,0.5,0.3,0.8c0.1,0.3,0.2,0.6,0.3,0.9c0.2,0.8,0.4,1.4,0.5,2
						c0.1,0.6,0.2,1.2,0.2,1.6c0,0.5,0,1-0.1,1.5c-0.1,0.5-0.2,0.9-0.3,1.4c-0.4,1.2-1,2.3-1.8,3.2s-1.6,1.6-2.7,2.2
						c-0.5,0.3-1.1,0.5-1.7,0.6s-1.3,0.2-1.8,0.2c-0.6,0-1.1-0.1-1.6-0.3c-0.5-0.2-0.8-0.5-1-0.8c-0.1-0.2-0.2-0.5-0.3-0.9
						c0-0.4,0-0.9,0-1.4C566.9,616.4,566.9,616.4,567,616.4z"/>
					<path class="st4" d="M592.2,590.1c-0.1-0.6-0.2-1.3-0.4-2c-0.1-0.7-0.3-1.3-0.4-2.1c0.1,0,0.1-0.1,0.1-0.1
						c1.9,0.8,3.7,1.7,5.3,2.8c1.7,1,3.3,2.1,4.8,3.3s3,2.3,4.5,3.2c1.5,0.9,2.9,1.7,4.2,2.3c0.2,0.5,0.3,0.7,0.4,1.2
						c-0.3,0.2-0.6,0.3-1,0.4c-0.4,0.1-0.9,0-1.6-0.1c-0.6-0.1-1.4-0.4-2.3-0.9c-0.9-0.4-1.9-1.1-3-2c-1.3-1-2.9-2-4.7-3
						C596.6,592.2,594.5,591.1,592.2,590.1z"/>
					<path class="st4" d="M633.7,592.4c0.1,0.3,0.1,0.6,0.2,1c0.1,0.4,0.1,0.8,0.1,1.2c0,0.4,0,0.8,0,1.1c0,0.3-0.1,0.5-0.2,0.6
						c-0.1,0.1-0.4,0.2-0.8,0.4c-0.4,0.2-0.9,0.3-1.5,0.5c-0.6,0.1-1.1,0.2-1.7,0.3c-0.6,0.1-1.1,0-1.4-0.1c0,0,0-0.1-0.1-0.3
						c0-0.2-0.1-0.4-0.1-0.6c0-0.2-0.1-0.5-0.1-0.8s-0.1-0.5-0.1-0.8c0-0.3,0-0.5,0-0.7s0-0.4,0.1-0.5c0.6,0,1.1-0.1,1.6-0.2
						c0.5-0.1,1.1-0.2,1.5-0.3c0.5-0.1,0.9-0.2,1.4-0.4C633,592.6,633.4,592.5,633.7,592.4C633.7,592.4,633.7,592.4,633.7,592.4z"/>
					<path class="st4" d="M600.8,592.6c0.5,0.1,1,0.1,1.4,0.2c0.4,0.1,0.7,0.2,0.9,0.4c0.1,0.1,0.3,0.2,0.5,0.4
						c0.3,0.2,0.5,0.4,0.9,0.6c0.3,0.2,0.7,0.5,1.1,0.7c0.4,0.2,0.8,0.5,1.2,0.7c0.8,0.5,1.6,0.8,2.3,1.1c0.7,0.2,1.4,0.4,2.1,0.3
						s1.3-0.2,2-0.4c0.7-0.3,1.3-0.7,2.1-1.2c0.4-0.3,0.8-0.7,1.2-1.2c0.4-0.5,0.7-1,1-1.6c0.3-0.6,0.5-1.2,0.7-1.8
						c0.2-0.7,0.2-1.3,0.3-1.9c0-0.5,0-1-0.1-1.5c-0.1-0.5-0.1-1.1-0.2-1.6c0-0.5,0-1,0-1.4c0-0.4,0.2-0.7,0.5-0.9
						c0.2-0.1,0.4-0.2,0.6-0.2c0.2,0,0.5-0.1,0.9-0.1c0.4,0,0.8-0.1,1.3-0.1c0.5-0.1,1.2-0.2,1.9-0.3c1.1-0.2,1.9-0.3,2.6-0.2
						c0.6,0.1,1.1,0.3,1.4,0.7c0.1,0.1,0.1,0.2,0.3,0.3c-0.1,0.3-0.4,0.7-0.6,0.9s-0.5,0.5-0.8,0.8c-0.4,0.3-0.7,0.5-1.1,0.7
						c-0.4,0.2-0.8,0.3-1.2,0.4c-0.4,0.1-0.8,0.2-1.2,0.4c-0.4,0.1-0.7,0.3-1,0.5c-0.2,0.2-0.3,0.4-0.4,0.6s0,0.6,0,0.9
						c0,0.4,0.1,0.8,0.2,1.2c0.1,0.4,0.1,0.9,0.2,1.4c0,0.5,0,1,0,1.6c-0.1,0.6-0.2,1.1-0.4,1.7c-0.3,0.9-0.8,1.7-1.4,2.5
						c-0.6,0.7-1.3,1.4-2.1,2c-0.7,0.5-1.5,0.9-2.3,1.2c-0.8,0.3-1.7,0.4-2.5,0.5c-0.9,0-1.8-0.1-2.7-0.3s-1.9-0.7-2.8-1.2
						c-0.6-0.4-1.3-0.8-1.9-1.2c-0.6-0.4-1.2-0.8-1.7-1.2c-0.5-0.4-0.9-0.7-1.3-1c-0.4-0.3-0.6-0.5-0.7-0.7
						c-0.3-0.4-0.5-0.8-0.7-1.2c-0.2-0.4-0.4-0.8-0.4-1.2C600.7,592.7,600.8,592.7,600.8,592.6z"/>
					<path class="st4" d="M625.7,558.5c0.1,0.2,0.2,0.6,0.3,0.9c0.1,0.4,0.1,0.7,0.2,1.1c0,0.4,0.1,0.7,0.1,0.9s0,0.4,0,0.4
						c-0.2,0.2-0.5,0.3-1,0.5c-0.5,0.2-1,0.3-1.5,0.5c-0.5,0.1-1,0.2-1.5,0.3c-0.5,0.1-0.8,0-1,0c0,0-0.1-0.1-0.1-0.3
						c0-0.1-0.1-0.3-0.1-0.5c0-0.2-0.1-0.4-0.1-0.7c0-0.2-0.1-0.5-0.1-0.7c0-0.2,0-0.5-0.1-0.7c0-0.2,0-0.3,0-0.5
						c0.3,0,0.7,0,1.1-0.1c0.4-0.1,0.8-0.2,1.3-0.3c0.4-0.1,0.9-0.2,1.3-0.4C625,558.8,625.4,558.7,625.7,558.5z M622.8,557.3
						c-0.1,0.1-0.4,0.2-0.7,0.4c-0.4,0.1-0.8,0.3-1.3,0.4c-0.5,0.1-0.9,0.2-1.4,0.2c-0.5,0.1-0.8,0-1,0c-0.1-0.2-0.1-0.4-0.2-0.8
						c-0.1-0.3-0.1-0.7-0.2-1c-0.1-0.3-0.1-0.6-0.1-0.9c0-0.3,0-0.5,0-0.6c0.2,0,0.5,0,0.9-0.1c0.4-0.1,0.8-0.1,1.2-0.2
						c0.4-0.1,0.8-0.2,1.3-0.4c0.4-0.1,0.8-0.3,1.2-0.5c0.1,0.3,0.2,0.6,0.3,1c0.1,0.4,0.2,0.7,0.2,1.1s0.1,0.6,0.1,0.9
						C622.9,557,622.9,557.2,622.8,557.3z M629.9,553.6c0.2,0.6,0.3,1.1,0.4,1.5c0.1,0.4,0.1,0.7,0.2,1c0,0.3,0,0.5,0,0.6
						c0,0.1,0,0.2-0.1,0.2c-0.1,0.1-0.4,0.2-0.8,0.4c-0.4,0.2-0.8,0.3-1.3,0.5c-0.5,0.1-1,0.2-1.5,0.3c-0.5,0.1-0.9,0-1.2-0.1
						c0-0.1-0.1-0.2-0.2-0.5s-0.1-0.6-0.2-0.9s-0.1-0.7-0.1-1c0-0.3,0-0.6,0-0.8c0.7,0,1.5-0.1,2.3-0.3
						C628.3,554.3,629.1,553.9,629.9,553.6z"/>
					<path class="st4" d="M619.9,583.4c0.9,0,1.7-0.2,2.5-0.4c0.8-0.3,1.6-0.7,2.2-1.2c0.8-0.6,1.5-1.5,2.1-2.4
						c0.6-1,1.1-2.1,1.5-3.4c0.4-1,0.6-2.1,0.7-3.3c0.1-1.2-0.1-2.4-0.5-3.6c0-0.1,0-0.2,0-0.3c0-0.1,0.1-0.2,0.2-0.3
						c0.3-0.2,0.5-0.2,0.7,0c0.2,0.2,0.4,0.5,0.5,0.8c0.1,0.3,0.3,0.6,0.5,0.8c0.3,0.3,0.5,0.4,0.8,0.4c0.3,0,0.5-0.1,0.8-0.3
						c0.8-0.6,1.3-1.8,1.6-3.4c0.1-0.4,0.1-0.8,0.1-1.1c0-0.3-0.1-0.7-0.2-0.9c-0.1-0.3-0.2-0.6-0.3-0.8c-0.1-0.3-0.3-0.6-0.4-0.9
						c-0.1-0.3-0.2-0.5-0.2-0.7c0-0.2,0-0.3,0.2-0.5c0.1-0.1,0.3-0.2,0.4-0.2c0.1,0,0.2,0.1,0.3,0.2c0.1,0.1,0.2,0.3,0.3,0.4
						c0.1,0.2,0.2,0.3,0.3,0.4c0.2,0.2,0.5,0.3,0.8,0.3c0.3,0,0.6-0.2,0.9-0.4s0.6-0.7,0.8-1.1c0.3-0.5,0.4-1.1,0.5-2
						c0.1-0.5,0-1-0.1-1.6c-0.1-0.6-0.4-1.2-0.8-2c-0.2-0.4-0.2-0.7,0-0.9c0.1-0.1,0.3-0.2,0.4-0.1c0.1,0,0.2,0.1,0.4,0.2
						c0.1,0.1,0.2,0.2,0.3,0.3c0.1,0.2,0.2,0.3,0.3,0.4c0.2,0.2,0.5,0.2,1,0.2c0.5-0.1,1.1-0.2,1.7-0.4c1-0.3,1.9-0.4,2.5-0.4
						s1.1,0.2,1.4,0.5c0.1,0.1,0.2,0.2,0.3,0.3c-0.1,0.3-0.3,0.7-0.5,1c-0.2,0.3-0.5,0.6-0.7,0.8c-0.3,0.3-0.7,0.5-1.1,0.8
						c-0.4,0.2-1,0.4-1.6,0.6c0,0-0.1,0.1-0.1,0.1c0.1,0.8,0.2,1.6,0.1,2.2c0,0.7-0.1,1.2-0.3,1.8c-0.1,0.5-0.3,1-0.6,1.4
						c-0.3,0.4-0.5,0.7-0.9,1c-0.3,0.2-0.6,0.4-0.9,0.6c-0.3,0.1-0.7,0.2-1.1,0.1c0,0-0.1,0.1-0.1,0.1c0.1,1,0.1,1.8,0,2.6
						c-0.1,0.8-0.2,1.5-0.4,2.1c-0.2,0.6-0.4,1.1-0.7,1.6c-0.3,0.4-0.6,0.8-1,1.2c-0.3,0.3-0.7,0.5-1.1,0.6
						c-0.4,0.1-0.9,0.1-1.3-0.1c-0.1,0-0.1,0.1-0.1,0.1c0,1.3-0.2,2.4-0.4,3.5s-0.6,2-1,2.9c-0.4,0.9-0.9,1.6-1.5,2.3
						c-0.6,0.7-1.2,1.3-1.9,1.8c-0.7,0.5-1.3,0.9-2,1.2c-0.7,0.3-1.4,0.5-2,0.5c-0.6,0.1-1.2,0.1-1.7-0.1c-0.5-0.1-0.8-0.3-1.1-0.6
						c-0.2-0.2-0.3-0.5-0.4-0.8c-0.1-0.4-0.2-0.8-0.3-1.4C619.8,583.5,619.8,583.4,619.9,583.4z"/>
					<path class="st4" d="M641,554.5c0.6-0.6,1.2-1.3,1.6-2.1c0.4-0.8,0.7-1.8,0.9-2.9c0.2-1,0.2-2,0-2.7c-0.1-0.8-0.4-1.4-0.9-1.9
						c-0.3-0.3-0.8-0.6-1.4-0.8c-0.6-0.2-1.3-0.4-2-0.5c-0.8-0.2-1.6-0.3-2.5-0.5c-0.9-0.2-1.7-0.4-2.6-0.7
						c-0.9-0.3-1.7-0.6-2.6-1.1s-1.6-1-2.3-1.6c-0.6-0.6-1.2-1.3-1.7-2.1c-0.5-0.8-0.9-1.8-1.3-2.9c-0.1-0.4-0.2-0.9-0.1-1.3
						c0-0.4,0.2-0.7,0.5-1c0.1,0,0.1,0,0.1,0c0.3,0.3,0.5,0.6,0.7,1.1c0.1,0.5,0.3,1,0.4,1.5c0.1,0.3,0.2,0.6,0.4,0.9
						s0.4,0.6,0.7,0.9c0.6,0.5,1.2,1,2,1.3c0.7,0.3,1.5,0.6,2.4,0.8c0.8,0.2,1.7,0.4,2.5,0.6c0.9,0.2,1.7,0.3,2.5,0.5
						c0.8,0.2,1.6,0.4,2.3,0.7c0.7,0.3,1.3,0.7,1.8,1.1c0.2,0.2,0.3,0.3,0.5,0.5c0.2,0.2,0.3,0.4,0.5,0.6c0.2,0.2,0.3,0.4,0.5,0.7
						c0.2,0.2,0.4,0.5,0.6,0.8c0.6,0.9,1.1,1.7,1.5,2.5c0.3,0.8,0.6,1.5,0.7,2.3c0.1,0.7,0.2,1.4,0.1,2.1c-0.1,0.7-0.3,1.5-0.5,2.2
						c-0.3,0.7-0.6,1.4-1,2.1c-0.4,0.7-0.9,1.2-1.4,1.7c-0.4,0.4-0.9,0.7-1.5,1c-0.6,0.3-1.2,0.5-1.8,0.6c-0.6,0.1-1.1,0.2-1.7,0.1
						c-0.5-0.1-0.9-0.2-1.2-0.5c-0.2-0.2-0.4-0.5-0.5-0.8c-0.1-0.4-0.3-0.8-0.4-1.4c0.1-0.1,0.1-0.1,0.1-0.1c1-0.1,1.9-0.3,2.5-0.6
						C640,555.2,640.6,554.8,641,554.5z"/>
					<path class="st4" d="M652.4,541.3c0,0.1,0.1,0.2,0.1,0.3c0,0.1,0,0.2-0.1,0.2c0,0-0.1,0-0.1,0c-0.1,0-0.1-0.1-0.2-0.2
						c-0.1-0.1-0.4-0.4-0.8-1c-0.4-0.5-1-1.1-1.8-1.8c-1.4-1.2-2.8-2.3-4.1-3.3c-1.4-1-2.7-1.8-4-2.5c-1.3-0.7-2.6-1.3-3.8-1.7
						c-1.2-0.4-2.4-0.7-3.5-0.7c-1.1-0.1-2.1,0-3,0.3c-0.9,0.3-1.7,0.8-2.4,1.5c-0.4,0.4-0.6,0.8-0.8,1.2c-0.1,0.4-0.1,0.9,0,1.4
						c0.1,0.4,0.1,0.8,0.2,1.1c0,0.3,0,0.6,0,0.8c-0.1,0-0.1,0.1-0.1,0.1c-0.1-0.1-0.2-0.2-0.3-0.2c-0.2-0.2-0.4-0.4-0.7-0.8
						c-0.3-0.3-0.5-0.8-0.7-1.3c-0.2-0.6-0.3-1.1-0.3-1.7c0-0.5,0-1.1,0.1-1.5c0.1-0.5,0.2-0.9,0.4-1.3c0.2-0.4,0.4-0.7,0.7-1
						c0.7-0.7,1.5-1.2,2.5-1.5c1-0.3,2-0.4,3.2-0.3s2.4,0.3,3.6,0.7c1.3,0.4,2.6,0.9,3.9,1.6c1.3,0.7,2.7,1.4,4,2.3
						c1.3,0.9,2.6,1.9,3.9,3c1,0.9,1.8,1.6,2.2,2.1c0.5,0.6,0.8,1.1,0.9,1.4c0.2,0.5,0.4,1,0.5,1.5
						C652.2,540.4,652.3,540.9,652.4,541.3z"/>
				</g>
			</g>
		</g>
	</g>
	<text transform="matrix(1.052 0 0 1 553.2705 402.1729)" class="st4 st5 st6">HEALTHY</text>
</g>
</svg>
